<svg width="104" height="71" viewBox="0 0 104 71" fill="none" xmlns="http://www.w3.org/2000/svg">
<path d="M39.9357 49.0518H23.0234C20.2144 49.0518 17.9371 51.414 17.9371 54.3279V55.2073C17.9371 58.1212 20.2144 60.4834 23.0234 60.4834L50.939 62.5869L39.9357 49.0518Z" fill="#D47EAF"/>
<path d="M80.9772 49.0518H64.162L53.6344 61.6688L80.9772 60.4834C83.7862 60.4834 86.0635 58.1212 86.0635 55.2073V54.3279C86.0634 51.414 83.7861 49.0518 80.9772 49.0518Z" fill="#D47EAF"/>
<path d="M77.2809 31.1237H85.0871C86.5324 30.8497 88.4504 29.5467 87.5361 24.3134C84.6005 10.4496 71.6047 0 56.0179 0H47.9826C32.443 0 19.4781 10.3854 16.4902 24.186C16.4902 24.186 15.106 31.1235 20.3214 31.1235H73.5661" fill="#803C9E"/>
<path d="M77.2809 31.1237H85.0871C86.5324 30.8497 88.4504 29.5467 87.5361 24.3134C84.6005 10.4496 71.6047 0 56.0179 0H47.9826C32.443 0 19.4781 10.3854 16.4902 24.186C16.4902 24.186 15.106 31.1235 20.3214 31.1235H73.5661" fill="url(#paint0_linear_4004_777)"/>
<path d="M88.0003 61.9024V61.2573C88.0003 60.8298 87.6538 60.4834 87.2264 60.4834H54.9852C54.7558 60.4834 54.538 60.5852 54.3912 60.7616L51.9506 63.6863L49.5531 60.7661C49.4062 60.5872 49.1868 60.4834 48.9552 60.4834H16.7741C16.3466 60.4834 16.0003 60.8298 16.0003 61.2573V61.9123C16.0007 61.9373 16.0021 61.9636 16.0037 61.9825L16.0069 62.0427L16.0041 62.095C16.002 62.1213 16.0007 62.1476 16.0001 62.1836V63.7878C16.0006 63.8133 16.002 63.8396 16.0035 63.857L16.0068 63.9186L16.0039 63.9703C16.0018 63.9966 16.0006 64.0232 16 64.0589V66.0154C16 67.7894 17.3915 69.2325 19.1019 69.2325H84.8984C86.6085 69.2325 88 67.7893 88 66.0154V64.0492C87.9997 64.0232 87.9982 63.9972 87.9968 63.9769L87.9934 63.9186L87.9963 63.8657C87.9983 63.8394 87.9997 63.8131 88 63.7778V62.1739C87.9997 62.1476 87.9982 62.1215 87.9968 62.1021L87.9934 62.0425L87.9965 61.9889C87.9985 61.9632 88 61.9372 88.0003 61.9024Z" fill="#803C9E"/>
<path d="M88.0003 61.9024V61.2573C88.0003 60.8298 87.6538 60.4834 87.2264 60.4834H54.9852C54.7558 60.4834 54.538 60.5852 54.3912 60.7616L51.9506 63.6863L49.5531 60.7661C49.4062 60.5872 49.1868 60.4834 48.9552 60.4834H16.7741C16.3466 60.4834 16.0003 60.8298 16.0003 61.2573V61.9123C16.0007 61.9373 16.0021 61.9636 16.0037 61.9825L16.0069 62.0427L16.0041 62.095C16.002 62.1213 16.0007 62.1476 16.0001 62.1836V63.7878C16.0006 63.8133 16.002 63.8396 16.0035 63.857L16.0068 63.9186L16.0039 63.9703C16.0018 63.9966 16.0006 64.0232 16 64.0589V66.0154C16 67.7894 17.3915 69.2325 19.1019 69.2325H84.8984C86.6085 69.2325 88 67.7893 88 66.0154V64.0492C87.9997 64.0232 87.9982 63.9972 87.9968 63.9769L87.9934 63.9186L87.9963 63.8657C87.9983 63.8394 87.9997 63.8131 88 63.7778V62.1739C87.9997 62.1476 87.9982 62.1215 87.9968 62.1021L87.9934 62.0425L87.9965 61.9889C87.9985 61.9632 88 61.9372 88.0003 61.9024Z" fill="url(#paint1_linear_4004_777)"/>
<path d="M27.8384 54.1117C28.4794 54.1117 28.9993 53.5921 28.9993 52.9509V49.0518H26.6776V52.9509C26.6776 53.5921 27.1972 54.1117 27.8384 54.1117Z" fill="white"/>
<path d="M35.1014 54.1117C35.7425 54.1117 36.2623 53.5921 36.2623 52.9509V49.0518H33.9406V52.9509C33.9406 53.5921 34.4603 54.1117 35.1014 54.1117Z" fill="white"/>
<path d="M68.5125 54.1117C69.1536 54.1117 69.6733 53.5921 69.6733 52.9509V49.0518H67.3516V52.9509C67.3516 53.5921 67.8712 54.1117 68.5125 54.1117Z" fill="white"/>
<path d="M74.6148 49.0518V52.9509C74.6148 53.5921 75.1346 54.1117 75.7757 54.1117C76.4169 54.1117 76.9365 53.5921 76.9365 52.9509V49.0518H74.6148Z" fill="white"/>
<path d="M29.0155 40.0784C28.7554 40.0784 28.4937 39.9912 28.2775 39.8129L23.3137 35.7185L18.3465 39.8099C17.8517 40.2175 17.12 40.1467 16.7125 39.6517C16.3046 39.1569 16.3754 38.4252 16.8704 38.0177L22.5761 33.3181C23.0049 32.9647 23.6242 32.965 24.0528 33.3184L29.7549 38.0218C30.2494 38.4298 30.3195 39.1614 29.9118 39.6561C29.6822 39.9344 29.3501 40.0784 29.0155 40.0784Z" fill="#A0C95D"/>
<path d="M29.2966 40.3011C29.0346 40.3011 28.7723 40.2125 28.5581 40.0356L22.8555 35.3328C22.3608 34.925 22.2908 34.1935 22.6984 33.6988C23.1065 33.2039 23.8381 33.1339 24.3328 33.5416L29.2973 37.636L34.2639 33.5445C34.7587 33.137 35.4904 33.2077 35.8982 33.7024C36.3057 34.1973 36.235 34.929 35.74 35.3368L30.035 40.0363C29.8205 40.2128 29.5584 40.3011 29.2966 40.3011Z" fill="#A0C95D"/>
<path d="M40.7047 40.3043C40.4427 40.3043 40.1804 40.2157 39.9662 40.0388L34.2635 35.3358C33.7686 34.928 33.6986 34.1964 34.1063 33.7017C34.5143 33.2068 35.2459 33.1368 35.7406 33.5445L40.7051 37.6386L45.6717 33.5474C46.1664 33.1399 46.8982 33.2104 47.3057 33.7054C47.7134 34.2002 47.6428 34.9319 47.1478 35.3397L41.4428 40.0393C41.2283 40.216 40.9665 40.3043 40.7047 40.3043Z" fill="#A0C95D"/>
<path d="M52.1124 40.3077C51.8506 40.3077 51.5883 40.2192 51.374 40.0422L45.6709 35.3392C45.1763 34.9314 45.106 34.1998 45.514 33.7051C45.9218 33.2103 46.6533 33.1402 47.1481 33.5479L52.1128 37.6423L57.0797 33.5506C57.5746 33.143 58.3062 33.2135 58.714 33.7085C59.1216 34.2034 59.0508 34.935 58.556 35.3428L52.8507 40.0427C52.6359 40.2196 52.3742 40.3077 52.1124 40.3077Z" fill="#A0C95D"/>
<path d="M63.5651 40.3112C63.3031 40.3112 63.0408 40.2226 62.8267 40.0457L57.1239 35.3426C56.629 34.9348 56.559 34.2033 56.9667 33.7085C57.3748 33.2137 58.1063 33.1437 58.601 33.5513L63.5655 37.6455L68.5321 33.554C69.0269 33.1465 69.7586 33.2169 70.1663 33.7119C70.574 34.2068 70.5032 34.9384 70.0084 35.3463L64.3034 40.0461C64.0886 40.223 63.8268 40.3112 63.5651 40.3112Z" fill="#A0C95D"/>
<path d="M74.9728 40.3141C74.7109 40.3141 74.4486 40.2255 74.2344 40.0486L68.5317 35.3455C68.0368 34.9377 67.9668 34.2062 68.3744 33.7115C68.7824 33.2166 69.5141 33.1466 70.0088 33.5543L74.9733 37.6487L79.9409 33.5569C80.4357 33.1494 81.1674 33.2198 81.5749 33.7148C81.9827 34.2097 81.912 34.9414 81.417 35.3492L75.711 40.049C75.4964 40.2259 75.2346 40.3141 74.9728 40.3141Z" fill="#A0C95D"/>
<path d="M86.3799 40.3171C86.1196 40.3171 85.8582 40.2299 85.6416 40.0516L79.94 35.3485C79.4454 34.9407 79.3752 34.2089 79.783 33.7141C80.191 33.2196 80.9227 33.1495 81.4174 33.5572L87.1192 38.2603C87.6137 38.6684 87.6839 39.3999 87.2761 39.8946C87.0466 40.1731 86.7144 40.3171 86.3799 40.3171Z" fill="#A0C95D"/>
<path d="M64.863 48.7233C64.7357 48.4512 64.4624 48.2773 64.162 48.2773H39.9357C39.6363 48.2773 39.364 48.4499 39.2361 48.7202C39.1082 48.9907 39.1478 49.3108 39.3376 49.5423L51.3527 64.1768C51.499 64.3551 51.7171 64.4588 51.9477 64.4598C51.9489 64.4598 51.9498 64.4598 51.9508 64.4598C52.1802 64.4598 52.398 64.358 52.5452 64.1816L64.7564 49.547C64.9488 49.3164 64.9904 48.9954 64.863 48.7233Z" fill="#FEFEFE"/>
<path opacity="0.15" d="M19.1733 24.186C22.1606 10.3854 35.1257 0 50.6653 0H47.9826C32.443 0 19.4781 10.3854 16.4902 24.186C16.4902 24.186 15.106 31.1236 20.3214 31.1236H23.0041C17.7887 31.1237 19.1733 24.186 19.1733 24.186Z" fill="#202020"/>
<g opacity="0.15">
<path d="M18.6833 66.0154V64.0589C18.6835 64.0234 18.6851 63.9968 18.6869 63.9703L18.6899 63.9186L18.6866 63.857C18.6851 63.8396 18.6835 63.8133 18.6833 63.7878V62.1836C18.6835 62.1477 18.6851 62.1214 18.6869 62.095L18.6899 62.0427L18.6866 61.9825C18.6851 61.9638 18.6835 61.9375 18.6833 61.9123V61.2573C18.6833 60.8298 19.0296 60.4834 19.4571 60.4834H16.7741C16.3466 60.4834 16.0003 60.8298 16.0003 61.2573V61.9123C16.0007 61.9373 16.0021 61.9636 16.0037 61.9825L16.0069 62.0427L16.0041 62.095C16.002 62.1213 16.0007 62.1476 16.0001 62.1836V63.7878C16.0006 63.8133 16.002 63.8396 16.0035 63.857L16.0068 63.9186L16.0039 63.9703C16.0018 63.9966 16.0006 64.0232 16 64.0589V66.0154C16 67.7894 17.3915 69.2325 19.1019 69.2325H21.7846C20.0747 69.2327 18.6833 67.7894 18.6833 66.0154Z" fill="#202020"/>
</g>
<path opacity="0.15" d="M20.6198 55.2068V54.3274C20.6198 51.4135 22.8974 49.0513 25.7064 49.0513H23.0234C20.2144 49.0513 17.9371 51.4135 17.9371 54.3274V55.2068C17.9371 58.1207 20.2144 60.483 23.0234 60.483H25.7064C22.8974 60.4831 20.6198 58.1207 20.6198 55.2068Z" fill="#202020"/>
<path opacity="0.15" d="M42.0203 49.5423C41.8303 49.3111 41.7909 48.9907 41.9187 48.7202C42.0468 48.4499 42.3194 48.2773 42.6185 48.2773H39.9355C39.6361 48.2773 39.3639 48.4499 39.2359 48.7202C39.1081 48.9907 39.1476 49.3108 39.3374 49.5423L51.3526 64.1768C51.4988 64.3551 51.7169 64.4588 51.9475 64.4598C51.9487 64.4598 51.9497 64.4598 51.9506 64.4598C52.18 64.4598 52.3978 64.358 52.5451 64.1816L53.2981 63.2789L42.0203 49.5423Z" fill="#202020"/>
<path d="M86.0633 47.3489C86.0633 48.3746 85.2318 49.2063 84.2059 49.2063H19.7946C18.7688 49.2063 17.9373 48.3746 17.9373 47.3489V44.4433C17.9373 43.4176 18.7688 42.5859 19.7946 42.5859H84.2061C85.2319 42.5859 86.0635 43.4176 86.0635 44.4433L86.0633 47.3489Z" fill="#8C5549"/>
<path opacity="0.15" d="M20.6198 47.1946V44.289C20.6198 43.2633 21.4515 42.4316 22.4772 42.4316H19.7946C18.7688 42.4316 17.9373 43.2633 17.9373 44.289V47.1943C17.9373 48.22 18.7688 49.0517 19.7946 49.0517H22.4773C21.4515 49.052 20.6198 48.2205 20.6198 47.1946Z" fill="#202020"/>
<line y1="70.5" x2="104" y2="70.5" stroke="white"/>
<defs>
<linearGradient id="paint0_linear_4004_777" x1="16" y1="25.5" x2="65.6674" y2="18.9601" gradientUnits="userSpaceOnUse">
<stop stop-color="#4C006F"/>
<stop offset="1" stop-color="#8542A3"/>
</linearGradient>
<linearGradient id="paint1_linear_4004_777" x1="4" y1="71" x2="43.2084" y2="103.948" gradientUnits="userSpaceOnUse">
<stop stop-color="#4C006F"/>
<stop offset="1" stop-color="#8542A3"/>
</linearGradient>
</defs>
</svg>
