<svg width="4417" height="744" viewBox="0 0 4417 744" fill="none" xmlns="http://www.w3.org/2000/svg">
<mask id="mask0_15_26" style="mask-type:alpha" maskUnits="userSpaceOnUse" x="0" y="130" width="4393" height="594">
<path d="M13.9393 287.136C14.8681 278.321 15.9144 269.51 16.7079 260.688C18.7435 238.076 20.804 215.464 22.0958 192.813C22.4481 186.639 23.2844 180.479 23.0567 174.286C23.0958 174.012 23.1349 173.735 23.1741 173.461C24.0922 171.069 22.9784 168.582 23.8075 166.187C24.231 163.906 24.6581 161.625 25.0816 159.34C27.3057 157.045 29.4623 155.664 33.7576 157.404C38.0387 159.141 41.6508 156.571 44.9462 154.877C48.7326 152.931 52.6508 151.721 57.2628 151.867C59.9888 151.055 62.7147 150.244 65.4407 149.429C69.736 148.728 73.9958 148.507 78.1168 149.995C80.8107 150.671 83.5367 150.941 86.3196 150.308C89.9174 148.949 93.9102 148.877 97.7607 148.34C100.33 148.07 102.867 147.642 105.455 147.454C105.924 147.468 106.376 147.557 106.8 147.703C109.334 148.571 111.198 151.255 114.768 149.336C115.23 149.23 115.697 149.173 116.177 149.155C120.86 149.262 125.622 148.941 129.992 150.632C135.39 154.475 141.8 154.788 148.55 153.411C152.18 152.671 156.91 153.952 159.095 150.383C166.116 150.571 172.707 145.297 180.091 149.525C181.479 150.319 182.543 149.546 183.07 148.415C183.507 147.472 184.084 146.564 184.376 145.578C184.945 143.546 186.92 142.739 189.372 142.336C191.582 142.774 193.643 143.191 196.127 142.675C198.618 142.155 201.774 142.073 203.86 143.344C206.916 145.205 209.763 144.522 212.671 143.664C214.881 143.013 217.03 142.507 219.436 142.593C223.649 142.742 226.02 140.28 228.614 138.504C232.849 135.603 233.923 135.458 239.155 137.408C243.482 139.02 248.112 139.65 252.436 137.112C256.71 134.621 260.283 131.934 266.984 132.536C273.478 133.119 280.3 131.863 286.976 132.774C287.421 132.881 287.866 132.998 288.304 133.119C290.823 134.5 293.112 134.426 295.944 133.212C301.567 130.803 307.307 130.486 313.065 133.461C315.571 134.753 318.926 134.593 321.894 134.635C325.948 134.692 329.748 134.998 333.047 136.92C333.958 139.333 335.207 141.301 338.994 142.148C341.239 142.65 342.805 144.415 344.115 146.066C346.197 148.692 348.549 149.194 351.926 147.472C354.933 145.938 357.602 145.771 360.691 147.201C364.004 148.735 367.616 147.92 370.848 147.151C374.122 146.368 376.68 146.628 379.111 148.312C382.143 150.415 385.1 151.586 388.179 148.29C389.186 147.212 390.901 146.92 392.652 146.959C393.125 147.005 393.573 147.112 393.997 147.279C396.517 150.126 399.897 151.119 404.307 150.002C406.232 149.514 408.406 149.219 410.164 149.838C415.805 151.824 421.128 149.731 426.595 149.497C431.153 149.301 431.744 146.507 433.392 144.351C435.684 142.294 438.178 142.756 440.968 143.813C445.804 145.65 446.737 145.276 446.94 141.422C447.046 139.379 447.765 138.034 450.804 137.906C451.452 137.877 450.876 138.176 451.271 137.849C458 132.322 467.669 135.077 475.605 132.974C483.858 132.639 492.11 134.173 500.373 132.945C502.046 132.696 503.516 132.351 504.893 131.511C508.302 129.426 511.929 129.625 515.512 131.34C517.206 132.151 518.711 133.123 520.202 134.141C523.238 136.216 526.807 137.55 531.042 137.461C532.786 137.425 534.612 137.554 535.871 138.258C541.53 141.429 548.946 140.877 554.85 143.457C556.982 144.329 559.38 144.272 561.661 144.39C568.49 144.742 574.341 148.005 581.298 147.941C583.17 147.924 584.166 149.045 585.077 150.109C586.561 154.045 589.579 156.194 595.526 155.97C599.714 155.813 603.625 157.208 607.412 158.532C607.839 158.657 608.266 158.778 608.693 158.895C612.091 160.009 613.881 156.706 617.056 157.187C626.273 157.699 635.134 158.952 642.447 163.671C644.273 164.849 646.6 165.144 648.992 165.13C650.988 165.116 653.002 165.084 654.639 166.173C656.91 170.23 661.799 172.415 666.39 174.536C669.159 175.813 673.066 175.265 676.447 175.4C679.803 175.536 682.806 175.81 686.002 176.959C690.119 178.436 695.176 177.945 699.443 179.582C700.45 179.97 701.767 180.037 702.593 180.656C704.5 182.087 706.543 182.39 708.931 181.429C709.681 181.126 710.589 180.909 711.358 181.105C718.19 182.842 725.817 182.813 732.034 185.767C736.115 187.706 739.962 188.311 744.236 186.703C745.656 186.169 746.984 186.062 748.518 186.027C753.14 185.923 754.539 187.066 753.35 190.404C753.005 191.379 752.308 192.293 753.176 193.251C754.037 194.201 755.354 194.389 756.735 194.105C758.436 193.756 758.229 192.799 758.183 191.71C758.001 187.357 761.759 185.073 767.564 185.884C769.742 186.187 771.507 185.404 773.012 184.493C774.61 183.525 776.314 182.831 778.218 182.326C778.944 182.254 779.645 182.329 780.325 182.521C781.959 183.386 783.403 182.728 784.859 182.18C787.14 181.059 789.588 180.297 792.343 180.197C793.702 180.148 795.297 180.112 796.111 179.35C800.008 175.721 805.111 176.916 810.019 177.194C812.855 177.354 814.489 178.71 815.844 180.365C818.054 183.062 821.175 184.279 825.496 184.144C831.972 183.941 838.342 184.827 844.723 185.546C846.325 185.728 847.727 186.237 848.545 187.172C851.068 190.073 855.008 190.126 858.826 189.987C867.727 189.667 876.243 190.286 884.819 192.575C894.2 195.076 904.068 195.496 913.548 192.105C915.221 191.507 916.751 190.795 918.111 189.824C923.477 186.005 928.342 185.827 935.15 188.418C939.57 190.101 944.755 190.012 949.374 189.13C955.491 187.955 961.335 188.731 967.295 189.215C968.306 189.297 969.309 189.486 970.05 190.037C974.808 193.599 980.63 193.905 986.815 193.115C992.096 193.35 997.405 193.297 1002.62 194.158C1004.8 194.518 1006.9 194.18 1008.96 193.589C1013.28 192.347 1017.41 192.571 1021.28 194.518C1022.25 194.671 1023.18 194.51 1024.12 194.315C1024.57 194.226 1025.01 194.222 1025.46 194.272C1032.31 192.603 1040.17 193.543 1046.13 189.671C1046.51 189.429 1047.02 189.301 1047.52 189.251C1056.72 188.286 1065.85 189.208 1074.45 191.34C1080.02 192.724 1082.03 193.155 1086.05 189.56C1086.37 189.272 1086.7 188.991 1087.07 188.735C1091.88 187.155 1096.24 184.674 1101.8 184.607C1111.36 185.82 1120.77 184.315 1130.24 183.667C1131.16 183.753 1132.08 183.852 1133.01 183.795C1138.77 183.763 1144.55 183.774 1149.56 181.14C1154.99 179.112 1160.77 177.888 1166.53 179.713C1171.74 181.368 1174.78 178.407 1178.77 177.422C1183.39 178.557 1187.81 177.97 1192.13 176.518C1193.4 176.454 1194.68 176.404 1195.9 176.799C1198.24 178.92 1200.98 180.183 1204.94 179.895C1208.2 179.66 1210.92 182.158 1214.45 181.205C1220.21 182.571 1225.98 183.258 1232.02 182.023C1234.22 181.571 1236.66 181.521 1238.97 181.585C1244.08 181.724 1249.09 182.326 1253.67 179.571C1256.17 178.076 1258.57 180.368 1261.05 180.874C1263.39 182.308 1264.78 184.002 1264.1 186.4C1263.54 188.361 1265.01 188.945 1267.26 188.539C1270.53 187.948 1273.78 187.436 1277.15 187.97C1279.07 188.272 1278.95 187.315 1278.96 186.404C1278.97 185.24 1277.93 184.29 1277.78 183.165C1277.63 181.959 1278.11 180.916 1279.49 180.226C1280.75 179.596 1282.1 179.656 1283.2 180.407C1286.61 182.745 1289.13 182.934 1291.88 179.511C1293.64 177.311 1296.97 177.543 1299.81 179.194C1302.98 181.034 1306.12 182.767 1310.59 182.624C1316.76 182.429 1318.22 182.172 1320.06 177.767C1321.31 174.799 1324.01 173.888 1327.29 173.318C1330.06 172.838 1332.27 173.77 1331.72 176.062C1330.92 179.464 1333.53 181.977 1335.02 184.845C1334.09 182.845 1332.3 180.948 1334.78 178.852C1336.73 177.201 1337.7 174.624 1340.84 174.094C1346.87 173.069 1350.34 169.681 1354.29 166.678C1356.68 165.941 1359.15 166.308 1360.96 167.329C1364.54 169.351 1366.54 168.066 1368.04 165.778C1369.56 163.457 1372.02 162.379 1375.14 161.472C1379.72 160.141 1382.94 160.468 1385.68 163.852C1387.32 165.881 1390.15 166.891 1393.37 165.03C1394.83 164.187 1396.36 164.141 1397.98 164.988C1401.99 167.08 1405.93 167.575 1410.56 165.561C1413.62 164.23 1417.18 165.468 1420.07 166.678C1423.57 168.144 1425.31 168.158 1427.14 164.927C1428.68 162.187 1429.83 158.226 1436.01 158.671C1436.86 158.731 1437.69 157.863 1438.25 157.255C1440.89 154.379 1445.34 153.856 1449.15 152.489C1454.63 149.731 1459.97 147.059 1467.09 146.714C1470.89 146.529 1473.85 146.781 1476.78 148.479C1480.51 150.632 1483.84 152.895 1489.32 153.119C1492.97 153.269 1497.48 154.65 1499.28 157.998C1501.3 160.429 1504.94 159.059 1507.59 159.963C1508.27 160.187 1508.85 160.507 1509.37 160.899C1514.53 162.988 1518.98 166.984 1525.85 164.5C1528.48 163.55 1530.36 166.329 1532.89 165.03C1535.15 163.795 1537.37 162.461 1540.47 163.208C1544.91 164.059 1549.63 163.781 1553.99 164.973C1555.16 165.34 1556.25 165.781 1556.8 166.699C1558.22 167.703 1555.73 170.767 1560.14 170.176C1560.63 170.165 1561.08 170.24 1561.53 170.372C1565.89 171.802 1570.01 173.867 1575.17 173.233C1576.32 173.091 1577.64 173.283 1578.55 172.692C1582.46 170.148 1585.98 171.642 1589.4 173.272C1591.05 174.062 1592.73 174.536 1594.6 174.183C1598.06 173.536 1601.4 173.041 1604.89 174.258C1606.34 174.763 1607.68 173.71 1609.07 173.329C1613.9 172.009 1618.51 170.706 1624.11 171.56C1627.98 172.151 1632.39 171.212 1635.99 169.155C1638.97 167.454 1641.95 165.553 1646.1 165.568C1648.03 165.575 1649.57 164.746 1651.17 164.069C1651.46 163.934 1651.83 163.721 1652.08 163.799C1657.51 165.475 1663.77 164.162 1669.03 166.443C1671.49 167.514 1674.13 167.489 1676.83 167.109C1682.47 169.126 1688.06 171.247 1693.9 172.959C1695.34 173.379 1696.7 173.906 1698.23 173.521C1705.16 171.77 1709.97 174.749 1713.99 178.034C1722.94 185.34 1734 187.859 1746.69 186.838C1751.93 186.414 1756.31 188.429 1761.28 188.788C1765.29 189.076 1769.49 189.567 1773.41 190.863C1776.26 191.802 1779.27 190.468 1782.11 189.76C1783.67 189.368 1785.11 188.19 1786.78 188.603C1792.42 189.994 1798.3 187.994 1803.98 189.514C1806.43 190.169 1809.36 190.098 1811.93 189.521C1818.34 188.083 1824.72 186.717 1831.52 187.578C1832.51 187.603 1833.57 188.066 1834.45 187.72C1840.58 185.329 1847.61 185.888 1853.99 184.336C1857.83 183.4 1859.8 180.802 1862.72 179.052C1864.76 178.294 1866.52 177.187 1868.57 176.436C1871.37 176.489 1874.07 177.023 1876.83 177.311C1881.74 176.489 1885.7 174.774 1888.21 171.294C1889.38 169.671 1891.98 168.899 1893.72 167.557C1896.19 167.151 1897.97 165.785 1900.13 164.956C1900.88 164.831 1901.6 164.934 1902.32 165.08C1906.64 167.052 1910.93 165.998 1914.53 164.269C1917.05 163.059 1918.8 162.408 1921.65 163.486C1926.48 165.319 1931.52 163.813 1936.43 163.468C1938.67 163.311 1940.71 163.18 1942.69 164.048C1946.96 165.464 1950.99 165.368 1954.75 163.087C1956.32 162.133 1958.48 162.045 1960.16 161.215C1960.56 161.016 1961 160.892 1961.47 160.831C1965.8 161.959 1969.9 163.706 1974.71 163.489C1976.01 163.614 1976.75 164.365 1977.64 164.948C1979.31 166.219 1981.04 166.699 1983.46 165.842C1985.7 165.048 1988.1 164.667 1990.64 165.706C1991.77 166.165 1993.68 166.496 1994.67 165.443C1997.01 162.959 2000.21 162.479 2003.91 162.806C2004.23 162.835 2004.68 162.824 2004.89 162.682C2011.44 158.29 2017.6 162.436 2023.91 163.155C2024.36 163.297 2024.74 163.504 2025.07 163.76C2029.24 166.778 2031.21 167.148 2036.26 165.404C2038.38 164.671 2040.17 165.671 2042.11 165.543C2046.4 162.806 2052.22 162.92 2056.77 161.276C2061.3 159.642 2066.13 161.351 2070.01 159.151C2075.91 158.511 2081.79 158.532 2087.67 159.29C2094.07 161.173 2099.62 159.621 2104.85 156.863C2105.6 156.418 2106.34 155.959 2107.35 155.884C2109.8 155.795 2112.52 156.304 2114.12 154.244C2115.93 152.874 2117.98 152.561 2120.5 153.148C2126.66 154.582 2132.05 153.045 2136.72 150.173C2139.3 148.593 2141.49 147.899 2144.83 148.824C2150.96 150.518 2155.72 147.959 2160.31 145.418C2161.63 144.685 2162.6 143.578 2164.43 143.436C2166.68 143.65 2168.91 143.924 2171.25 143.756C2174.57 143.518 2177.44 144.212 2178.82 146.817C2179.09 147.123 2179.28 147.454 2179.4 147.81C2179.28 149.614 2179.64 151.301 2181.47 152.642C2182.52 155.504 2184.16 158.244 2184.77 161.205C2184.75 165.24 2185.89 168.988 2189.58 172.116C2189.9 172.436 2190.1 172.792 2190.18 173.187C2190.75 178.361 2192.99 183.254 2194.75 188.226C2198.23 198.051 2203.05 207.564 2206.96 217.279C2209.02 222.418 2210.15 227.82 2212.1 233.033C2212.25 233.439 2212.34 233.852 2212.38 234.272C2214.84 241.343 2214.77 248.645 2215.97 255.83C2216.33 257.966 2218.12 259.973 2216.93 262.243C2218.89 277.037 2221.02 291.819 2222.78 306.627C2224.51 321.171 2226.02 335.737 2227.37 350.306C2229.78 376.388 2231.97 402.48 2234.31 428.569C2235.16 438.05 2235.13 447.598 2236.41 457.017C2238.07 469.21 2238.38 481.448 2239.96 493.636C2241.55 505.946 2242.13 518.33 2243.26 530.675C2244.84 547.867 2246.35 565.056 2248.72 582.209C2251.31 600.984 2253.2 619.813 2255.54 638.607C2256.64 647.436 2258.08 656.24 2259.36 665.055C2263.6 668.251 2262.5 672.539 2263.29 676.372C2265.25 685.849 2265.33 695.5 2267.83 704.937C2268.98 709.286 2268.41 713.631 2267.67 717.976C2267.36 719.788 2265.97 720.681 2263.7 720.745C2257.93 720.912 2252.08 721.524 2246.58 719.443C2244.56 718.677 2242.42 719.692 2240.34 719.464C2235.94 717.396 2230.88 718.058 2226.1 717.542C2224.33 717.35 2223.47 718.361 2222.3 719.044C2217.62 721.788 2213.94 721.706 2210.08 718.414C2208.16 716.777 2206.31 716.204 2203.36 715.941C2197.94 715.46 2192.84 713.621 2187.62 712.379C2182.37 711.129 2177.03 710.211 2172.18 709.215C2173.76 709.83 2177.31 709.478 2176.41 712.407C2175.79 714.435 2172.46 715.19 2168.81 714.048C2164.65 712.756 2160.45 711.802 2155.9 711.944C2148.77 708.29 2140.43 707.4 2132.23 706.389C2123.26 705.283 2114.17 705.439 2105.1 705.799C2102.73 705.702 2100.03 705.147 2098.58 704.24C2093.93 701.35 2089.68 701.834 2084.9 703.72C2081.87 704.912 2079.47 703.589 2076.44 702.759C2069.45 700.855 2062.02 698.162 2054.14 701.005C2052.35 701.653 2050.44 702.122 2048.8 703.001C2036.6 706.617 2025.57 701.927 2021.21 692.852C2012.54 690.044 2004.78 685.998 1996.49 682.667C1996.08 682.507 1995.69 682.315 1995.33 682.091C1994.82 681.735 1994.33 681.372 1993.79 681.034C1991.17 679.333 1988.43 677.728 1985.78 676.062C1982.38 673.92 1977.46 673.838 1973.24 672.767C1967.87 671.4 1962.55 670.094 1958.07 667.343C1957.54 669.72 1956.09 670.621 1952.64 669.585C1948.32 668.286 1943.83 667.308 1940.19 664.98C1939.55 664.571 1938.72 664.123 1937.95 664.237C1932.23 665.076 1927.35 662.475 1921.86 662.137C1916.96 661.831 1912.71 662.617 1908.59 664.358C1908.14 664.486 1907.68 664.539 1907.21 664.528C1904.08 664.457 1902.68 660.756 1898.78 662.293C1898.03 662.365 1897.33 662.269 1896.66 662.023C1894.33 660.069 1891 658.938 1889.61 656.105C1888.99 654.845 1886.56 652.899 1883.1 654.439C1880.68 655.514 1877.59 654.536 1874.8 654.657C1872.36 653.169 1869.74 652.721 1866.86 653.952C1866.37 653.973 1865.89 653.923 1865.43 653.802C1862.75 651.468 1859.62 650.24 1855.36 651.254C1853.23 651.76 1851.63 650.39 1849.71 650.091C1849.3 649.92 1848.9 649.728 1848.51 649.543C1843.55 648.101 1839.5 644.984 1833.36 645.649C1831.42 645.859 1829.05 644.489 1827.92 642.742C1826.76 640.956 1824.57 640.457 1822.12 640.454C1811.25 640.443 1800.58 639.383 1790.11 637.173C1789.64 637.073 1789.1 636.927 1788.78 636.671C1784.2 633.016 1779.09 634.379 1774.24 636.048C1771.37 637.034 1769.37 636.788 1767.87 634.888C1766.56 633.24 1764.57 633.041 1762.39 632.973C1759.89 632.65 1759.33 631.176 1758.84 629.66C1758.84 627.183 1755.74 627.497 1753.93 626.653C1753.32 626.336 1752.83 625.941 1752.47 625.454C1751.99 624.397 1750.91 623.479 1750.58 622.447C1749.71 619.667 1747.47 618.564 1743.82 618.675C1742.99 618.7 1742.26 618.28 1741.51 618.023C1741.08 617.892 1740.7 617.714 1740.36 617.479C1739.52 615.155 1737.66 613.824 1734.26 613.991C1733.81 613.91 1733.4 613.757 1733.03 613.543C1731.63 612.241 1729.64 612.596 1727.9 612.685C1724.16 612.874 1720.65 612.689 1717.41 611.023C1714.46 609.511 1712.9 611.472 1711.13 612.728C1708.62 616.226 1704.41 616.511 1699.81 616.102C1696.81 614.689 1693.61 616.959 1690.59 615.853C1685.78 615.034 1680.42 616.248 1676.08 613.685C1675.22 613.386 1674.3 612.628 1673.4 613.393C1669.93 616.337 1666.85 615.294 1663.84 612.902C1667.63 615.717 1666.34 619.098 1660.57 621.482C1660.14 621.611 1659.69 621.696 1659.22 621.735C1655.23 622.02 1651.06 620.183 1647.21 622.283C1642.22 619.849 1635.37 621.806 1630.75 618.305C1628.84 616.856 1625.97 616.408 1623.87 617.767C1619.64 620.518 1614.72 618.653 1610.21 619.219C1608.21 619.472 1605.95 618.354 1603.5 618.376C1600.68 618.401 1598.47 616.764 1597.56 614.817C1596.55 612.635 1595.08 612.632 1593.24 613.892C1590.25 615.934 1587.38 616.571 1583.91 614.486C1582.09 613.39 1580.31 614.23 1579.03 615.28C1576.46 617.386 1573.91 618.539 1570.62 616.038C1570.05 615.603 1569.05 615.408 1568.25 615.6C1563.44 616.76 1559.52 615.789 1555.88 613.251C1553.82 611.813 1551.32 612.038 1549.01 613.376C1544.62 615.927 1543.71 615.924 1540.12 612.76C1538.27 611.127 1536.27 610.742 1533.53 610.821C1526.05 611.041 1518.7 612.152 1511.22 612.376C1509.55 612.426 1507.81 612.71 1506.27 612.152C1502.13 610.639 1502.1 612.639 1502.26 614.724C1502.6 619.49 1499.81 621.415 1492.7 621.251C1492.27 621.119 1491.84 620.977 1491.41 620.831C1485.66 619.39 1485.83 619.361 1486.72 614.65C1487.46 610.742 1489.02 606.689 1485.6 602.661C1484.7 604.28 1485.28 605.543 1486.21 606.504C1488.2 608.586 1487.49 610.774 1487.09 612.949C1486.77 614.728 1485.09 615.593 1482.8 615.379C1478.86 615.016 1474.94 614.589 1471.15 613.575C1467.89 612.703 1466.97 610.988 1468.09 608.87C1470.03 605.184 1468.26 602.116 1465.75 598.141C1464.11 602.917 1458.87 602.557 1455.01 603.842C1453.18 604.45 1451.3 603.671 1450.4 602.283C1448.82 599.817 1445.74 599.618 1442.77 599.358C1439.87 599.109 1438.15 600.024 1437.47 602.344C1436.02 607.305 1428.09 609.44 1421.88 607.479C1417.84 606.205 1413.9 604.771 1409.84 603.547C1407.22 602.753 1405.68 601.753 1405.71 599.76C1402.54 600.988 1398.94 601.735 1396.45 603.959C1395.2 605.08 1393.35 604.579 1391.8 603.97C1389.3 602.984 1386.72 602.746 1384.04 603.483C1379.83 604.643 1378.85 606.436 1380.71 609.557C1381.19 610.358 1381.69 611.162 1382.04 611.988C1383.18 614.653 1381.41 616.618 1377.77 616.465C1371.9 616.216 1366.12 616.191 1360.45 617.628C1358.69 618.073 1356.72 617.863 1355.1 617.098C1350.25 614.81 1345.13 615.703 1340.02 616.269C1339.7 616.305 1339.29 616.376 1339.1 616.55C1334.11 621.208 1326.55 620.176 1319.99 621.319C1318.01 621.667 1317.45 622.657 1316.76 623.845C1314.99 626.835 1312.75 627.376 1308.79 625.892C1307.3 625.337 1305.82 624.255 1304.16 624.753C1295.55 627.333 1291.54 622.201 1286.53 619.45C1287.29 620.849 1289.09 622.237 1291.25 623.194C1296.07 625.336 1298.73 628.105 1296.85 632.272C1297.77 632.828 1298.41 632.66 1299.04 632.472C1301.88 631.628 1304.65 631.333 1306.63 633.554C1308.05 635.141 1306.68 638.895 1304.69 640.468C1299.92 644.237 1293.55 643.027 1287.83 643.411C1285.22 643.585 1283.8 641.429 1285.3 639.532C1286.97 637.418 1286.02 636.037 1284.07 634.582C1280.36 631.806 1278.04 627.977 1272.46 626.607C1270.37 626.094 1268.41 625.529 1266.19 625.518C1260.83 625.493 1260.2 625.995 1260.46 629.927C1260.58 631.785 1260.95 633.799 1258.24 634.941C1256.08 635.856 1253.97 635.269 1252.05 634.447C1249.3 633.258 1248.94 631.425 1249.73 629.244C1250.33 627.628 1250.36 625.714 1248.69 624.618C1244.07 621.586 1243.96 618.564 1247.68 615.739C1245.64 617.408 1244.76 619.949 1243.84 622.557C1242.92 625.191 1240.1 625.895 1237.31 624.159C1234.42 622.351 1231.68 622.425 1228.47 623.215C1226.27 623.76 1224.05 624.376 1221.62 624.183C1219.86 624.045 1218.8 624.76 1218.29 625.991C1218.05 626.589 1217.86 627.308 1217.15 627.632C1213.54 629.315 1212.2 631.162 1214.87 634.255C1216.02 635.586 1214.85 637.479 1212.98 638.585C1210.8 639.884 1208.12 640.041 1205.95 638.916C1203.42 637.607 1200.65 636.863 1197.89 635.984C1192.66 634.322 1192.05 631.988 1196.26 629.13C1198.54 627.578 1196.73 626.988 1195.34 626.995C1190.08 627.013 1185.29 625.07 1180.06 625.159C1178.76 625.18 1177.27 624.721 1176.51 625.927C1175.94 626.831 1176.65 627.593 1177.18 628.383C1181.76 635.173 1181.09 641.892 1176.51 648.5C1175.8 649.528 1175.27 650.536 1175.14 651.671C1174.93 653.681 1174.2 655.425 1171.08 655.792C1168.13 656.137 1166.42 654.852 1165.07 653.105C1163.35 650.884 1160.87 649.254 1157.91 647.963C1152.4 645.561 1146.55 647.568 1145.3 652.354C1144.05 657.141 1141.29 658.254 1135.18 656.027C1132.61 655.091 1130.74 655.141 1129.11 656.785C1126.88 659.027 1121.98 659.226 1121.28 662.585C1116.61 665.034 1111.79 663.486 1108.2 661.706C1102.68 658.966 1096.32 657.233 1091.37 653.852C1089.2 651.614 1085.61 650.625 1083.18 648.486C1081.53 647.023 1078.28 647.198 1075.56 647.34C1068.79 647.689 1064.27 645.649 1061.63 640.906C1060.55 638.959 1058.64 638.045 1056.01 637.603C1051.8 636.899 1047.48 636.657 1043.29 635.753C1038.88 634.799 1036.17 637.098 1033.59 639.294C1031.87 640.109 1030.12 639.578 1028.99 638.799C1026.57 637.137 1023.55 636.514 1020.72 635.532C1020.1 635.205 1019.69 634.746 1019.36 634.251C1012.42 627.062 1002.39 620.607 995.356 618.191C1001.34 623.109 1009.47 628.682 1011.76 637.301C1011.39 638.294 1010.36 638.831 1009.27 639.329C1007 639.731 1005.5 638.835 1004.13 637.646C1002.08 635.867 1000.2 634.155 996.516 633.895C993.576 633.689 994.929 631.272 994.224 629.607C987.491 632.525 981.922 631.208 977.192 626.998C975.224 625.244 972.907 624.525 969.669 625.13C967.078 625.614 964.263 625.5 962.701 623.301C961.534 621.657 959.153 622.258 957.402 621.692C952.908 620.536 948.199 619.959 943.691 618.81C940.143 617.906 936.84 619.625 933.328 619.856C926.648 620.294 920.698 618.415 914.47 617.643C911.616 617.29 909.47 617.294 907.096 618.201C905.192 616.486 902.783 616.198 899.926 616.5C894.424 617.077 888.922 617.312 884.189 614.447C880.214 612.322 875.353 612.063 870.905 610.934C870.292 610.899 869.684 610.863 869.072 610.824C868.413 609.838 866.88 609.995 865.88 609.454L865.873 609.45C863.04 608.187 859.865 607.593 856.695 607.201C854.68 606.952 853.485 606.244 852.517 605.07C850.748 603.963 848.506 604.397 846.773 604.639C843.89 605.045 841.745 605.176 839.869 603.095C838.737 601.842 836.67 602.49 835.236 603.016C832.275 604.105 829.94 603.511 826.855 602.792C822.378 601.746 817.503 599.152 812.4 602.059C810.207 603.305 807.677 602.479 806.617 601.177C802.261 595.821 794.877 596.112 788.108 595.194C787.129 595.063 786.047 594.945 785.108 595.134C778.645 596.419 773.218 595.013 767.699 592.369C764.813 590.984 760.674 591.387 757.058 591.572C750.991 591.881 745.019 592.397 739.169 590.248C734.76 588.629 730.272 588.458 727.276 592.315C726.724 593.027 725.628 593.251 724.621 593.141C719.329 592.568 713.817 592.408 708.699 592.693C702.037 593.066 694.87 592.18 688.6 594.906C686.319 596.703 683.507 596.372 680.692 596.009C678.892 596.493 677.571 597.166 675.511 595.604C671.849 592.828 666.931 594.244 662.458 594.564C661.557 594.629 660.162 595.511 659.842 594.621C658.205 590.113 654.589 592.561 652.198 593.604C646.219 596.209 641.472 592.956 636.219 592.198C635.465 592.088 634.725 591.664 634.12 591.269C626.166 586.095 617.728 587.899 609.376 590.433C606.75 591.23 604.782 590.159 602.796 589.614C598.245 588.369 593.896 587.497 588.871 588.034C586.608 588.276 583.999 586.703 581.547 585.952C577.91 585.767 574.964 583.725 571.227 583.814L571.223 583.817C566.515 584.07 561.949 583.23 557.359 582.7C556.088 582.554 555.117 582.518 554.12 583.073L554.145 583.066C548.487 582.974 542.914 582.184 537.483 581.191C532.978 580.369 528.626 582.326 524.291 581.02C520.27 579.81 515.662 581.034 511.775 579.305C510.84 579.227 510.832 577.543 509.608 578.355C505.462 581.102 500.601 580.18 495.793 580.501C491.79 580.767 487.857 581.159 483.84 580.86C479.729 582.515 475.423 582.337 470.847 582.433C463.082 582.6 455.406 582.255 447.705 582.212C443.691 582.191 439.157 582.572 434.979 583.387C433.043 583.764 431.424 583.241 429.847 582.372C426.879 580.735 423.826 580.618 420.452 581.945C415.808 583.774 411.136 583.821 406.944 581.098C404.677 579.625 402.104 579.572 400.036 580.828C394.926 583.935 388.844 583.767 382.944 583.91C376.912 584.052 370.777 583.746 365.068 585.319C359.89 586.746 355.77 583.835 350.983 584.049C350.022 584.091 349.111 583.518 348.058 583.799C341.859 585.444 335.976 583.116 329.923 582.885C328.158 582.817 326.506 582.618 324.649 582.735C321.467 582.938 318.161 583.17 315.005 581.86C311.047 580.219 306.386 580.789 302.179 580.753C296.774 580.703 291.3 579.433 285.866 580.817C281.624 581.899 277.542 583.376 272.685 582.198C269.866 581.515 267.777 584.714 264.489 583.828C262.4 582.849 260.119 582.71 257.781 583.066C249.35 584.347 241.137 583.159 232.945 581.86C231.81 581.678 230.539 581.059 229.571 581.465C224.525 583.582 219.336 582.878 214.091 582.205C213.119 582.081 212.112 582.39 211.198 582.714C206.632 584.333 202.18 585.536 196.785 584.668C188.265 583.301 179.365 585.191 170.806 583.44C164.942 581.871 159.326 580.095 152.632 580.988C147.066 581.728 141.301 580.76 136.049 578.992C131.842 577.575 126.739 578.109 123.077 575.561C122.743 575.33 122.045 575.294 121.625 575.444C114.931 577.835 108.198 574.65 101.504 575.54L101.462 575.575C99.0063 576.429 97.3373 575.664 96.017 574.12C94.7465 572.629 92.743 571.707 90.5544 571.807C82.2306 572.177 74.4727 570.244 66.519 568.988C62.6756 568.383 58.7361 569.928 54.6472 569.123C50.4337 568.291 46.0529 567.949 41.6686 567.721C39.5049 567.607 37.6402 566.889 35.9356 565.668C31.5904 562.55 25.6723 561.899 20.167 561.554C15.9001 561.287 11.8752 559.636 7.37349 560.462C5.29877 560.842 4.01765 559.995 3.5479 557.978C2.39845 553.07 1.4127 548.163 0.957187 543.195C-0.0570401 527.455 -0.291923 511.715 0.38067 495.957C0.910915 483.466 0.925153 470.964 1.85753 458.476C2.32372 452.263 3.27745 446.028 3.38421 439.857C3.56926 429.021 4.68313 418.231 5.23116 407.42C5.68668 398.438 6.36282 389.463 7.27029 380.488C8.74003 365.922 9.17419 351.299 10.1813 336.705C10.8895 326.474 11.8219 316.25 12.6546 306.022C11.4838 303.663 12.5621 301.357 12.95 299.033C14.2062 295.143 14.4339 291.157 13.9393 287.136Z" fill="white"/>
<path d="M4391.79 433.81C4391.46 442.667 4391.01 451.529 4390.82 460.385C4390.32 483.083 4389.8 505.782 4390.05 528.469C4390.12 534.653 4389.7 540.856 4390.35 547.018C4390.33 547.294 4390.31 547.574 4390.29 547.85C4389.54 550.298 4390.82 552.704 4390.15 555.15C4389.88 557.455 4389.61 559.759 4389.34 562.068C4387.28 564.509 4385.22 566.032 4380.82 564.588C4376.43 563.146 4373 565.954 4369.83 567.868C4366.18 570.067 4362.36 571.54 4357.75 571.708C4355.08 572.702 4352.42 573.697 4349.75 574.695C4345.51 575.686 4341.28 576.195 4337.07 574.99C4334.33 574.499 4331.59 574.414 4328.86 575.235C4325.36 576.835 4321.39 577.177 4317.58 577.975C4315.03 578.419 4312.53 579.017 4309.96 579.381C4309.49 579.399 4309.04 579.34 4308.6 579.224C4306.02 578.529 4303.98 575.979 4300.54 578.135C4300.09 578.273 4299.63 578.361 4299.15 578.411C4294.47 578.623 4289.74 579.265 4285.27 577.876C4279.62 574.407 4273.2 574.53 4266.56 576.362C4262.99 577.347 4258.19 576.39 4256.25 580.099C4249.23 580.388 4243.01 586.097 4235.36 582.38C4233.92 581.682 4232.91 582.525 4232.46 583.69C4232.09 584.66 4231.58 585.605 4231.35 586.608C4230.92 588.674 4229.01 589.614 4226.59 590.182C4224.35 589.895 4222.27 589.619 4219.83 590.303C4217.38 590.99 4214.23 591.286 4212.06 590.16C4208.89 588.511 4206.09 589.386 4203.25 590.439C4201.09 591.238 4198.98 591.888 4196.58 591.966C4192.36 592.103 4190.16 594.721 4187.7 596.669C4183.67 599.85 4182.61 600.068 4177.25 598.478C4172.83 597.163 4168.17 596.849 4164.02 599.674C4159.93 602.449 4156.55 605.372 4149.82 605.227C4143.3 605.086 4136.58 606.802 4129.86 606.346C4129.41 606.27 4128.95 606.183 4128.51 606.092C4125.9 604.885 4123.62 605.115 4120.88 606.518C4115.43 609.303 4109.73 610.009 4103.78 607.431C4101.19 606.313 4097.86 606.7 4094.89 606.859C4090.85 607.077 4087.03 607.03 4083.61 605.336C4082.54 602.991 4081.16 601.112 4077.32 600.524C4075.05 600.176 4073.37 598.521 4071.95 596.963C4069.69 594.484 4067.31 594.143 4064.06 596.091C4061.16 597.825 4058.51 598.173 4055.33 596.955C4051.92 595.65 4048.37 596.708 4045.2 597.694C4041.99 598.698 4039.42 598.612 4036.88 597.098C4033.71 595.205 4030.68 594.238 4027.84 597.734C4026.9 598.878 4025.21 599.286 4023.46 599.366C4022.99 599.352 4022.53 599.276 4022.1 599.138C4019.39 596.468 4015.95 595.707 4011.63 597.121C4009.74 597.738 4007.59 598.18 4005.8 597.682C4000.03 596.084 3994.86 598.533 3989.43 599.138C3984.89 599.643 3984.49 602.47 3982.99 604.733C3980.85 606.941 3978.33 606.649 3975.47 605.784C3970.52 604.28 3969.62 604.716 3969.68 608.575C3969.71 610.62 3969.08 612.011 3966.06 612.345C3965.41 612.417 3965.97 612.08 3965.6 612.433C3959.26 618.404 3949.42 616.312 3941.65 618.949C3933.44 619.843 3925.1 618.873 3916.94 620.658C3915.29 621.02 3913.85 621.465 3912.53 622.396C3909.27 624.708 3905.64 624.755 3901.95 623.287C3900.2 622.593 3898.63 621.725 3897.08 620.811C3893.91 618.947 3890.25 617.858 3886.04 618.234C3884.3 618.388 3882.47 618.384 3881.16 617.767C3875.3 614.987 3867.94 616.041 3861.88 613.867C3859.69 613.142 3857.3 613.362 3855.02 613.399C3848.18 613.511 3842.12 610.653 3835.18 611.189C3833.32 611.334 3832.25 610.283 3831.27 609.283C3829.52 605.457 3826.36 603.517 3820.44 604.144C3816.28 604.585 3812.28 603.459 3808.41 602.395C3807.98 602.3 3807.54 602.208 3807.11 602.12C3803.64 601.239 3802.08 604.655 3798.88 604.391C3789.65 604.506 3780.73 603.857 3773.11 599.646C3771.21 598.594 3768.87 598.458 3766.48 598.634C3764.49 598.784 3762.48 598.952 3760.78 597.977C3758.23 594.084 3753.21 592.236 3748.48 590.431C3745.63 589.344 3741.77 590.156 3738.39 590.251C3735.03 590.344 3732.02 590.274 3728.75 589.344C3724.54 588.15 3719.53 588.983 3715.16 587.64C3714.13 587.321 3712.82 587.343 3711.95 586.781C3709.95 585.483 3707.89 585.32 3705.57 586.441C3704.84 586.794 3703.95 587.072 3703.17 586.929C3696.24 585.66 3688.63 586.206 3682.23 583.681C3678.03 582.023 3674.15 581.68 3669.99 583.575C3668.61 584.204 3667.29 584.401 3665.77 584.54C3661.16 584.957 3659.69 583.912 3660.65 580.501C3660.93 579.505 3661.56 578.545 3660.63 577.649C3659.7 576.759 3658.38 576.661 3657.02 577.038C3655.35 577.502 3655.62 578.443 3655.74 579.526C3656.21 583.856 3652.62 586.39 3646.77 585.975C3644.58 585.821 3642.87 586.722 3641.43 587.733C3639.9 588.807 3638.25 589.615 3636.38 590.248C3635.67 590.369 3634.96 590.342 3634.27 590.196C3632.58 589.444 3631.18 590.199 3629.77 590.845C3627.57 592.118 3625.18 593.044 3622.44 593.33C3621.08 593.472 3619.5 593.616 3618.73 594.431C3615.09 598.317 3609.92 597.47 3605.01 597.526C3602.17 597.559 3600.44 596.317 3598.98 594.758C3596.59 592.217 3593.39 591.215 3589.09 591.643C3582.64 592.285 3576.23 591.833 3569.81 591.549C3568.2 591.476 3566.77 591.064 3565.89 590.186C3563.18 587.463 3559.24 587.677 3555.44 588.075C3546.58 588.999 3538.05 588.959 3529.33 587.258C3519.81 585.398 3509.93 585.649 3500.7 589.676C3499.07 590.386 3497.6 591.2 3496.31 592.262C3491.21 596.436 3486.37 596.943 3479.4 594.821C3474.88 593.441 3469.71 593.882 3465.16 595.076C3459.14 596.663 3453.26 596.285 3447.28 596.207C3446.26 596.194 3445.25 596.074 3444.47 595.574C3439.48 592.343 3433.65 592.432 3427.54 593.64C3422.25 593.764 3416.96 594.178 3411.7 593.672C3409.5 593.462 3407.42 593.942 3405.41 594.671C3401.18 596.203 3397.05 596.26 3393.06 594.581C3392.08 594.493 3391.16 594.717 3390.24 594.976C3389.79 595.095 3389.35 595.128 3388.9 595.109C3382.19 597.239 3374.27 596.836 3368.59 601.103C3368.23 601.37 3367.73 601.533 3367.24 601.616C3358.12 603.203 3348.95 602.902 3340.23 601.359C3334.57 600.357 3332.54 600.063 3328.78 603.922C3328.48 604.231 3328.17 604.534 3327.81 604.815C3323.12 606.718 3318.94 609.488 3313.4 609.933C3303.77 609.372 3294.48 611.512 3285.08 612.801C3284.16 612.778 3283.23 612.741 3282.31 612.861C3276.56 613.284 3270.8 613.665 3265.98 616.633C3260.7 619.025 3255.01 620.639 3249.15 619.208C3243.83 617.911 3241 621.071 3237.09 622.326C3232.4 621.507 3228.03 622.392 3223.83 624.134C3222.55 624.284 3221.29 624.421 3220.05 624.109C3217.57 622.152 3214.74 621.078 3210.81 621.634C3207.58 622.089 3204.7 619.781 3201.23 620.973C3195.39 620 3189.59 619.707 3183.65 621.349C3181.49 621.949 3179.06 622.164 3176.75 622.257C3171.63 622.466 3166.6 622.205 3162.21 625.265C3159.83 626.925 3157.27 624.802 3154.77 624.465C3152.34 623.193 3150.83 621.598 3151.35 619.159C3151.77 617.165 3150.27 616.682 3148.05 617.239C3144.83 618.051 3141.62 618.783 3138.22 618.478C3136.29 618.307 3136.47 619.254 3136.52 620.164C3136.59 621.326 3137.7 622.203 3137.92 623.315C3138.15 624.508 3137.74 625.581 3136.41 626.363C3135.2 627.077 3133.85 627.108 3132.7 626.434C3129.13 624.333 3126.61 624.315 3124.1 627.918C3122.49 630.232 3119.16 630.226 3116.21 628.772C3112.92 627.152 3109.67 625.635 3105.22 626.081C3099.08 626.695 3097.64 627.05 3096.1 631.57C3095.06 634.616 3092.42 635.708 3089.19 636.499C3086.46 637.166 3084.19 636.386 3084.58 634.062C3085.16 630.613 3082.38 628.284 3080.7 625.523C3081.76 627.455 3083.67 629.227 3081.34 631.486C3079.5 633.266 3078.72 635.902 3075.62 636.644C3069.67 638.076 3066.45 641.692 3062.7 644.956C3060.37 645.853 3057.88 645.655 3056.01 644.759C3052.29 642.986 3050.39 644.403 3049.04 646.788C3047.68 649.206 3045.3 650.449 3042.26 651.566C3037.78 653.205 3034.54 653.097 3031.58 649.906C3029.81 647.993 3026.91 647.177 3023.82 649.253C3022.42 650.193 3020.9 650.343 3019.23 649.608C3015.09 647.793 3011.13 647.566 3006.64 649.89C3003.67 651.426 3000.04 650.432 2997.07 649.421C2993.48 648.196 2991.74 648.3 2990.14 651.647C2988.79 654.486 2987.91 658.516 2981.71 658.492C2980.86 658.489 2980.09 659.411 2979.58 660.056C2977.13 663.105 2972.73 663.928 2969.03 665.55C2963.74 668.674 2958.59 671.703 2951.52 672.53C2947.74 672.973 2944.77 672.921 2941.73 671.427C2937.86 669.532 2934.39 667.5 2928.91 667.648C2925.25 667.747 2920.66 666.675 2918.64 663.456C2916.46 661.168 2912.92 662.782 2910.21 662.06C2909.52 661.883 2908.91 661.603 2908.37 661.247C2903.08 659.513 2898.37 655.828 2891.69 658.773C2889.13 659.899 2887.07 657.254 2884.63 658.721C2882.46 660.107 2880.34 661.589 2877.19 661.054C2872.7 660.507 2868.01 661.104 2863.58 660.21C2862.39 659.924 2861.27 659.558 2860.66 658.679C2859.18 657.774 2861.45 654.548 2857.09 655.437C2856.61 655.481 2856.14 655.437 2855.69 655.336C2851.24 654.205 2847 652.425 2841.89 653.407C2840.75 653.627 2839.42 653.525 2838.55 654.176C2834.82 656.98 2831.21 655.728 2827.69 654.334C2825.99 653.658 2824.28 653.299 2822.43 653.778C2819.03 654.659 2815.73 655.379 2812.16 654.402C2810.69 653.996 2809.42 655.138 2808.06 655.612C2803.33 657.257 2798.82 658.869 2793.18 658.397C2789.27 658.071 2784.94 659.307 2781.48 661.604C2778.63 663.503 2775.78 665.601 2771.64 665.869C2769.72 665.992 2768.23 666.924 2766.69 667.707C2766.41 667.862 2766.05 668.1 2765.79 668.039C2760.26 666.735 2754.11 668.47 2748.71 666.551C2746.17 665.65 2743.54 665.854 2740.88 666.417C2735.11 664.787 2729.39 663.05 2723.45 661.739C2721.99 661.417 2720.59 660.984 2719.1 661.471C2712.3 663.688 2707.29 661.043 2703.06 658.039C2693.64 651.357 2682.43 649.594 2669.84 651.474C2664.64 652.252 2660.13 650.54 2655.15 650.519C2651.13 650.503 2646.91 650.298 2642.9 649.272C2640 648.528 2637.09 650.064 2634.31 650.963C2632.77 651.46 2631.42 652.733 2629.73 652.434C2624 651.429 2618.27 653.823 2612.5 652.692C2610.01 652.205 2607.09 652.475 2604.57 653.225C2598.27 655.094 2592 656.89 2585.15 656.493C2584.17 656.535 2583.08 656.145 2582.22 656.55C2576.26 659.352 2569.22 659.271 2562.96 661.252C2559.19 662.447 2557.4 665.172 2554.61 667.117C2552.62 668.012 2550.94 669.236 2548.94 670.124C2546.15 670.261 2543.42 669.912 2540.65 669.811C2535.8 670.965 2531.97 672.944 2529.7 676.587C2528.64 678.286 2526.1 679.233 2524.45 680.689C2522.02 681.262 2520.34 682.746 2518.24 683.72C2517.5 683.895 2516.77 683.841 2516.04 683.744C2511.6 682.071 2507.39 683.412 2503.92 685.382C2501.49 686.76 2499.78 687.529 2496.87 686.646C2491.93 685.146 2487 686.99 2482.13 687.667C2479.9 687.976 2477.87 688.245 2475.84 687.514C2471.48 686.39 2467.47 686.76 2463.87 689.291C2462.37 690.349 2460.22 690.584 2458.6 691.525C2458.21 691.752 2457.79 691.905 2457.32 691.998C2452.93 691.166 2448.71 689.701 2443.93 690.244C2442.62 690.208 2441.83 689.509 2440.91 688.987C2439.16 687.833 2437.4 687.471 2435.04 688.491C2432.86 689.435 2430.49 689.978 2427.88 689.114C2426.73 688.732 2424.8 688.532 2423.88 689.65C2421.71 692.287 2418.55 692.983 2414.84 692.908C2414.52 692.901 2414.08 692.942 2413.88 693.098C2407.64 697.924 2401.21 694.206 2394.86 693.917C2394.41 693.805 2394.02 693.625 2393.66 693.392C2389.3 690.664 2387.31 690.429 2382.39 692.511C2380.33 693.386 2378.48 692.51 2376.54 692.77C2372.45 695.791 2366.63 696.073 2362.2 698.022C2357.8 699.959 2352.87 698.582 2349.14 701.04C2343.31 702.079 2337.43 702.457 2331.52 702.1C2325 700.656 2319.57 702.581 2314.54 705.687C2313.82 706.182 2313.11 706.691 2312.11 706.833C2309.67 707.089 2306.93 706.765 2305.47 708.93C2303.75 710.42 2301.73 710.871 2299.17 710.457C2292.94 709.443 2287.66 711.343 2283.19 714.526C2280.73 716.277 2278.59 717.118 2275.19 716.422C2268.97 715.147 2264.39 718.023 2259.99 720.87C2258.72 721.691 2257.83 722.86 2256.01 723.127C2253.74 723.067 2251.51 722.945 2249.19 723.27C2245.89 723.734 2242.98 723.236 2241.43 720.73C2241.13 720.444 2240.92 720.126 2240.78 719.779C2240.78 717.971 2240.3 716.313 2238.38 715.098C2237.14 712.315 2235.32 709.692 2234.51 706.78C2234.26 702.752 2232.86 699.091 2228.97 696.221C2228.63 695.923 2228.41 695.581 2228.3 695.192C2227.38 690.069 2224.81 685.339 2222.72 680.498C2218.58 670.931 2213.12 661.768 2208.57 652.34C2206.16 647.354 2204.67 642.041 2202.37 636.971C2202.19 636.577 2202.07 636.171 2202.01 635.755C2199.07 628.867 2198.65 621.577 2196.96 614.49C2196.46 612.384 2194.53 610.503 2195.57 608.157C2192.6 593.531 2189.48 578.927 2186.71 564.273C2184 549.879 2181.51 535.449 2179.18 521.005C2175 495.147 2171.04 469.264 2166.94 443.394C2165.45 433.993 2164.83 424.465 2162.91 415.154C2160.43 403.102 2159.29 390.913 2156.89 378.86C2154.46 366.687 2153.05 354.37 2151.08 342.131C2148.33 325.086 2145.66 308.039 2142.13 291.087C2138.27 272.53 2135.11 253.873 2131.5 235.281C2129.8 226.547 2127.78 217.861 2125.9 209.153C2121.45 206.253 2122.26 201.9 2121.21 198.129C2118.61 188.808 2117.88 179.184 2114.74 169.938C2113.3 165.677 2113.57 161.303 2114.02 156.918C2114.2 155.09 2115.53 154.104 2117.78 153.886C2123.54 153.328 2129.32 152.32 2134.95 154.024C2137.02 154.65 2139.09 153.493 2141.18 153.579C2145.71 155.344 2150.71 154.34 2155.52 154.53C2157.29 154.602 2158.09 153.535 2159.21 152.774C2163.69 149.718 2167.36 149.551 2171.44 152.573C2173.47 154.076 2175.35 154.522 2178.31 154.584C2183.75 154.696 2188.97 156.185 2194.26 157.07C2199.58 157.96 2204.98 158.513 2209.88 159.179C2208.26 158.672 2204.74 159.264 2205.44 156.281C2205.92 154.215 2209.19 153.237 2212.92 154.128C2217.15 155.135 2221.41 155.801 2225.94 155.35C2233.29 158.513 2241.68 158.834 2249.93 159.286C2258.95 159.782 2268.02 159.008 2277.03 158.035C2279.4 157.97 2282.13 158.341 2283.65 159.147C2288.48 161.715 2292.69 160.943 2297.33 158.737C2300.27 157.342 2302.76 158.5 2305.84 159.121C2312.93 160.547 2320.54 162.73 2328.2 159.359C2329.94 158.591 2331.82 157.993 2333.4 157.004C2345.32 152.569 2356.65 156.5 2361.61 165.258C2370.45 167.471 2378.47 170.981 2386.96 173.742C2387.39 173.873 2387.78 174.039 2388.16 174.238C2388.69 174.559 2389.21 174.887 2389.77 175.188C2392.5 176.707 2395.35 178.123 2398.1 179.605C2401.64 181.511 2406.55 181.259 2410.83 182.041C2416.28 183.04 2421.68 183.982 2426.34 186.423C2426.7 184.015 2428.09 183.018 2431.6 183.818C2436 184.82 2440.55 185.491 2444.34 187.567C2445 187.932 2445.86 188.322 2446.62 188.157C2452.27 186.931 2457.32 189.194 2462.81 189.16C2467.73 189.132 2471.91 188.059 2475.91 186.043C2476.34 185.885 2476.8 185.801 2477.27 185.779C2480.4 185.638 2482.05 189.235 2485.84 187.437C2486.57 187.315 2487.28 187.363 2487.96 187.563C2490.42 189.354 2493.82 190.257 2495.4 192.989C2496.1 194.204 2498.66 195.981 2502.01 194.209C2504.35 192.972 2507.5 193.739 2510.27 193.429C2512.81 194.747 2515.45 195.017 2518.25 193.593C2518.73 193.538 2519.21 193.556 2519.68 193.645C2522.51 195.792 2525.72 196.804 2529.91 195.503C2531.99 194.855 2533.68 196.113 2535.62 196.281C2536.04 196.424 2536.45 196.589 2536.86 196.746C2541.9 197.848 2546.15 200.683 2552.23 199.602C2554.15 199.262 2556.61 200.468 2557.86 202.134C2559.14 203.837 2561.36 204.186 2563.8 204.023C2574.64 203.296 2585.36 203.63 2595.95 205.125C2596.43 205.192 2596.98 205.301 2597.31 205.535C2602.14 208.87 2607.14 207.164 2611.87 205.169C2614.66 203.992 2616.67 204.101 2618.3 205.894C2619.72 207.449 2621.72 207.513 2623.9 207.433C2626.41 207.586 2627.08 209.018 2627.67 210.497C2627.84 212.968 2630.9 212.446 2632.77 213.164C2633.4 213.439 2633.92 213.8 2634.3 214.262C2634.86 215.284 2636 216.126 2636.39 217.134C2637.45 219.848 2639.76 220.796 2643.4 220.438C2644.22 220.357 2644.98 220.727 2645.74 220.931C2646.18 221.034 2646.57 221.186 2646.92 221.397C2647.92 223.658 2649.87 224.86 2653.25 224.462C2653.71 224.513 2654.13 224.638 2654.51 224.826C2656 226.03 2657.95 225.54 2659.69 225.333C2663.41 224.891 2666.92 224.838 2670.27 226.279C2673.31 227.588 2674.73 225.526 2676.41 224.153C2678.68 220.492 2682.86 219.922 2687.48 220.019C2690.57 221.225 2693.61 218.742 2696.7 219.641C2701.55 220.131 2706.82 218.557 2711.32 220.819C2712.2 221.059 2713.16 221.753 2714.01 220.928C2717.28 217.756 2720.42 218.588 2723.58 220.769C2719.61 218.218 2720.67 214.757 2726.26 211.987C2726.69 211.83 2727.13 211.714 2727.59 211.643C2731.56 211.088 2735.84 212.638 2739.54 210.282C2744.68 212.371 2751.38 209.954 2756.23 213.134C2758.23 214.449 2761.13 214.702 2763.13 213.203C2767.17 210.171 2772.19 211.698 2776.67 210.827C2778.64 210.439 2780.97 211.401 2783.41 211.214C2786.22 210.997 2788.54 212.481 2789.58 214.361C2790.74 216.469 2792.2 216.373 2793.96 214.991C2796.8 212.75 2799.62 211.919 2803.22 213.764C2805.11 214.735 2806.83 213.776 2808.03 212.642C2810.46 210.365 2812.92 209.042 2816.38 211.315C2816.97 211.709 2817.98 211.837 2818.77 211.591C2823.49 210.107 2827.46 210.81 2831.27 213.094C2833.42 214.389 2835.9 213.996 2838.11 212.504C2842.32 209.66 2843.23 209.602 2847.03 212.515C2848.98 214.019 2851.01 214.266 2853.73 214.002C2861.18 213.275 2868.44 211.668 2875.88 210.937C2877.55 210.774 2879.26 210.372 2880.84 210.825C2885.08 212.052 2884.96 210.055 2884.67 207.985C2884 203.254 2886.65 201.145 2893.76 200.825C2894.2 200.927 2894.64 201.04 2895.08 201.156C2900.91 202.204 2900.75 202.244 2900.17 207.005C2899.7 210.954 2898.42 215.104 2902.1 218.891C2902.89 217.214 2902.23 215.994 2901.24 215.098C2899.11 213.156 2899.67 210.924 2899.92 208.728C2900.12 206.93 2901.74 205.954 2904.04 206.011C2907.99 206.106 2911.93 206.266 2915.78 207.021C2919.1 207.669 2920.13 209.318 2919.16 211.507C2917.47 215.317 2919.44 218.257 2922.22 222.053C2923.53 217.177 2928.78 217.18 2932.55 215.636C2934.33 214.905 2936.26 215.554 2937.25 216.878C2939 219.231 2942.08 219.222 2945.06 219.279C2947.97 219.331 2949.62 218.302 2950.14 215.941C2951.26 210.893 2959.02 208.224 2965.35 209.759C2969.47 210.756 2973.5 211.919 2977.63 212.865C2980.3 213.479 2981.9 214.372 2982.01 216.363C2985.09 214.922 2988.63 213.932 2990.96 211.544C2992.14 210.341 2994.02 210.716 2995.6 211.218C2998.17 212.032 3000.75 212.095 3003.37 211.178C3007.5 209.735 3008.36 207.879 3006.29 204.891C3005.76 204.125 3005.2 203.356 3004.8 202.557C3003.48 199.975 3005.11 197.895 3008.75 197.801C3014.62 197.651 3020.39 197.283 3025.96 195.464C3027.68 194.9 3029.66 194.976 3031.33 195.63C3036.32 197.584 3041.37 196.345 3046.43 195.434C3046.75 195.376 3047.15 195.278 3047.32 195.091C3051.99 190.104 3059.6 190.621 3066.06 189.036C3068.02 188.554 3068.51 187.529 3069.12 186.296C3070.68 183.194 3072.88 182.502 3076.94 183.713C3078.46 184.166 3080 185.146 3081.63 184.536C3090.04 181.377 3094.39 186.225 3099.58 188.629C3098.72 187.286 3096.84 186.023 3094.62 185.214C3089.67 183.404 3086.81 180.823 3088.41 176.537C3087.46 176.046 3086.83 176.256 3086.22 176.487C3083.44 177.521 3080.69 178.004 3078.57 175.923C3077.05 174.435 3078.15 170.597 3080.03 168.893C3084.53 164.809 3090.97 165.584 3096.66 164.812C3099.25 164.461 3100.81 166.516 3099.44 168.51C3097.92 170.733 3098.97 172.046 3101.01 173.366C3104.9 175.883 3107.47 179.546 3113.13 180.534C3115.25 180.904 3117.25 181.335 3119.46 181.195C3124.81 180.856 3125.4 180.313 3124.88 176.407C3124.63 174.562 3124.12 172.578 3126.75 171.254C3128.85 170.195 3130.99 170.637 3132.96 171.328C3135.78 172.327 3136.27 174.131 3135.62 176.361C3135.14 178.013 3135.24 179.926 3136.98 180.906C3141.8 183.617 3142.11 186.624 3138.59 189.696C3140.51 187.892 3141.22 185.297 3141.95 182.633C3142.7 179.943 3145.46 179.048 3148.36 180.592C3151.37 182.199 3154.1 181.938 3157.25 180.933C3159.41 180.24 3161.58 179.475 3164.02 179.502C3165.79 179.521 3166.8 178.735 3167.21 177.472C3167.42 176.859 3167.56 176.129 3168.24 175.758C3171.74 173.833 3172.94 171.9 3170.07 168.996C3168.83 167.746 3169.87 165.777 3171.66 164.547C3173.75 163.103 3176.41 162.764 3178.65 163.739C3181.27 164.874 3184.08 165.428 3186.89 166.118C3192.22 167.421 3192.99 169.709 3188.99 172.845C3186.81 174.549 3188.65 175.015 3190.05 174.913C3195.29 174.539 3200.2 176.152 3205.42 175.708C3206.71 175.599 3208.23 175.956 3208.9 174.701C3209.41 173.76 3208.66 173.048 3208.07 172.296C3203.04 165.833 3203.25 159.084 3207.37 152.18C3208.01 151.106 3208.48 150.065 3208.52 148.924C3208.59 146.903 3209.21 145.114 3212.3 144.536C3215.22 143.992 3217.01 145.158 3218.47 146.809C3220.34 148.908 3222.92 150.366 3225.97 151.454C3231.63 153.476 3237.33 151.077 3238.25 146.217C3239.17 141.356 3241.85 140.058 3248.09 141.866C3250.72 142.625 3252.59 142.448 3254.1 140.697C3256.17 138.31 3261.05 137.778 3261.52 134.378C3266.02 131.619 3270.93 132.836 3274.63 134.368C3280.32 136.727 3286.78 138.025 3291.95 141.062C3294.27 143.148 3297.92 143.891 3300.48 145.86C3302.24 147.207 3305.47 146.813 3308.17 146.486C3314.9 145.678 3319.55 147.406 3322.5 151.96C3323.71 153.829 3325.68 154.612 3328.33 154.874C3332.59 155.291 3336.91 155.239 3341.15 155.856C3345.62 156.509 3348.16 154.031 3350.59 151.665C3352.25 150.735 3354.03 151.146 3355.22 151.846C3357.74 153.341 3360.79 153.757 3363.69 154.545C3364.33 154.829 3364.77 155.26 3365.13 155.73C3372.54 162.431 3382.99 168.191 3390.17 170.125C3383.86 165.624 3375.37 160.616 3372.5 152.172C3372.8 151.157 3373.8 150.55 3374.85 149.98C3377.09 149.424 3378.64 150.217 3380.09 151.31C3382.26 152.946 3384.25 154.526 3387.94 154.535C3390.89 154.542 3389.71 157.044 3390.52 158.658C3397.04 155.29 3402.69 156.225 3407.69 160.105C3409.77 161.722 3412.13 162.282 3415.32 161.458C3417.88 160.799 3420.69 160.722 3422.4 162.81C3423.68 164.371 3426.01 163.61 3427.8 164.055C3432.36 164.904 3437.09 165.16 3441.67 166.001C3445.27 166.662 3448.45 164.723 3451.94 164.254C3458.57 163.364 3464.64 164.834 3470.9 165.182C3473.77 165.34 3475.92 165.191 3478.22 164.124C3480.24 165.706 3482.66 165.831 3485.49 165.335C3490.94 164.386 3496.41 163.778 3501.33 166.315C3505.44 168.165 3510.31 168.095 3514.82 168.918C3515.44 168.912 3516.05 168.906 3516.66 168.904C3517.38 169.843 3518.9 169.582 3519.94 170.054L3519.94 170.057C3522.86 171.125 3526.06 171.503 3529.25 171.678C3531.28 171.79 3532.52 172.415 3533.57 173.521C3535.41 174.506 3537.61 173.92 3539.33 173.561C3542.18 172.961 3544.31 172.684 3546.32 174.634C3547.53 175.807 3549.55 175.02 3550.95 174.397C3553.83 173.11 3556.2 173.544 3559.32 174.052C3563.86 174.792 3568.9 177.05 3573.8 173.802C3575.9 172.411 3578.48 173.063 3579.63 174.291C3584.33 179.338 3591.68 178.546 3598.5 179.003C3599.48 179.068 3600.57 179.111 3601.49 178.86C3607.86 177.139 3613.37 178.173 3619.05 180.437C3622.02 181.622 3626.13 180.94 3629.72 180.51C3635.75 179.789 3641.68 178.869 3647.66 180.617C3652.17 181.933 3656.66 181.799 3659.38 177.747C3659.89 176.999 3660.97 176.701 3661.98 176.743C3667.3 176.955 3672.81 176.741 3677.89 176.109C3684.51 175.285 3691.72 175.682 3697.8 172.537C3699.95 170.589 3702.78 170.729 3705.61 170.9C3707.37 170.295 3708.65 169.534 3710.81 170.953C3714.65 173.474 3719.46 171.727 3723.9 171.104C3724.79 170.979 3726.13 170.003 3726.51 170.869C3728.45 175.257 3731.89 172.569 3734.2 171.366C3739.99 168.361 3744.95 171.284 3750.24 171.684C3751 171.743 3751.77 172.115 3752.4 172.468C3760.68 177.091 3768.98 174.718 3777.14 171.623C3779.71 170.65 3781.74 171.585 3783.76 171.993C3788.39 172.927 3792.78 173.502 3797.76 172.625C3800 172.23 3802.71 173.622 3805.21 174.205C3808.85 174.142 3811.93 175.98 3815.65 175.638L3815.65 175.634C3820.33 175.063 3824.95 175.591 3829.56 175.808C3830.84 175.867 3831.81 175.837 3832.77 175.216L3832.74 175.224C3838.4 174.933 3844.01 175.343 3849.49 175.965C3854.05 176.479 3858.25 174.231 3862.67 175.24C3866.76 176.174 3871.28 174.64 3875.27 176.102C3876.21 176.116 3876.33 177.795 3877.5 176.903C3881.45 173.88 3886.36 174.47 3891.14 173.824C3895.11 173.286 3899.01 172.629 3903.04 172.654C3907.03 170.724 3911.33 170.61 3915.89 170.203C3923.63 169.509 3931.31 169.333 3939 168.853C3943 168.601 3947.5 167.914 3951.61 166.817C3953.52 166.31 3955.17 166.722 3956.8 167.481C3959.87 168.913 3962.93 168.823 3966.2 167.269C3970.71 165.129 3975.37 164.766 3979.74 167.198C3982.1 168.514 3984.67 168.392 3986.65 166.999C3991.54 163.552 3997.62 163.306 4003.49 162.764C4009.5 162.212 4015.64 162.101 4021.23 160.145C4026.3 158.37 4030.61 160.994 4035.37 160.456C4036.33 160.348 4037.27 160.858 4038.31 160.506C4044.38 158.445 4050.41 160.368 4056.46 160.188C4058.23 160.136 4059.89 160.222 4061.73 159.979C4064.89 159.561 4068.18 159.106 4071.41 160.198C4075.47 161.566 4080.09 160.682 4084.29 160.432C4089.68 160.115 4095.23 161.011 4100.56 159.261C4104.72 157.894 4108.69 156.143 4113.61 156.989C4116.47 157.479 4118.34 154.145 4121.68 154.806C4123.83 155.641 4126.12 155.625 4128.42 155.111C4136.75 153.261 4145.02 153.889 4153.29 154.629C4154.43 154.733 4155.74 155.264 4156.68 154.794C4161.57 152.339 4166.79 152.69 4172.07 153.005C4173.05 153.063 4174.03 152.686 4174.92 152.301C4179.37 150.376 4183.73 148.873 4189.17 149.373C4197.76 150.159 4206.52 147.669 4215.17 148.835C4221.13 150.003 4226.85 151.394 4233.47 150.048C4238.97 148.932 4244.79 149.506 4250.15 150.914C4254.45 152.042 4259.5 151.163 4263.33 153.457C4263.68 153.665 4264.38 153.653 4264.78 153.475C4271.3 150.635 4278.23 153.356 4284.85 152.014L4284.89 151.976C4287.28 150.957 4289 151.607 4290.42 153.058C4291.79 154.46 4293.85 155.243 4296.03 154.995C4304.31 154.061 4312.18 155.463 4320.2 156.176C4324.08 156.519 4327.9 154.711 4332.04 155.235C4336.3 155.78 4340.69 155.824 4345.08 155.754C4347.25 155.72 4349.16 156.311 4350.94 157.413C4355.49 160.228 4361.43 160.477 4366.95 160.447C4371.23 160.424 4375.35 161.798 4379.79 160.669C4381.83 160.148 4383.17 160.906 4383.77 162.888C4385.25 167.706 4386.57 172.535 4387.36 177.46C4389.44 193.095 4390.75 208.783 4391.14 224.551C4391.46 237.049 4392.3 249.523 4392.21 262.045C4392.17 268.275 4391.64 274.56 4391.95 280.724C4392.51 291.548 4392.13 302.389 4392.31 313.212C4392.47 322.205 4392.4 331.205 4392.11 340.221C4391.63 354.853 4392.19 369.471 4392.17 384.1C4392.16 394.356 4391.92 404.62 4391.79 414.88C4393.12 417.155 4392.2 419.529 4391.97 421.873C4390.98 425.839 4391.02 429.831 4391.79 433.81Z" fill="white"/>
</mask>
<g mask="url(#mask0_15_26)">
<g filter="url(#filter0_d_15_26)">
<path d="M35 111H2192.5H4350V744H2192.5H35V111Z" fill="white"/>
</g>
</g>
<defs>
<filter id="filter0_d_15_26" x="31" y="111" width="4323" height="641" filterUnits="userSpaceOnUse" color-interpolation-filters="sRGB">
<feFlood flood-opacity="0" result="BackgroundImageFix"/>
<feColorMatrix in="SourceAlpha" type="matrix" values="0 0 0 0 0 0 0 0 0 0 0 0 0 0 0 0 0 0 127 0" result="hardAlpha"/>
<feOffset dy="4"/>
<feGaussianBlur stdDeviation="2"/>
<feComposite in2="hardAlpha" operator="out"/>
<feColorMatrix type="matrix" values="0 0 0 0 0 0 0 0 0 0 0 0 0 0 0 0 0 0 0.25 0"/>
<feBlend mode="normal" in2="BackgroundImageFix" result="effect1_dropShadow_15_26"/>
<feBlend mode="normal" in="SourceGraphic" in2="effect1_dropShadow_15_26" result="shape"/>
</filter>
</defs>
</svg>
