<svg width="2353" height="613" viewBox="0 0 2353 613" fill="none" xmlns="http://www.w3.org/2000/svg">
<path d="M14.4582 162.985C15.4216 153.842 16.5068 144.703 17.3299 135.553C19.4412 112.099 21.5784 88.6452 22.9183 65.1509C23.2837 58.7468 24.1512 52.3574 23.915 45.9347C23.9556 45.6505 23.9961 45.3626 24.0367 45.0784C24.9891 42.5979 23.8337 40.0178 24.6938 37.5336C25.133 35.1676 25.576 32.8016 26.0152 30.4318C28.3222 28.051 30.559 26.6189 35.0143 28.4238C39.4547 30.2251 43.2013 27.5601 46.6193 25.8031C50.5467 23.7841 54.6107 22.5291 59.3944 22.6804C62.2219 21.8388 65.0493 20.9972 67.8767 20.1519C72.332 19.4248 76.7503 19.1959 81.0247 20.7388C83.8189 21.4402 86.6463 21.7207 89.5328 21.0637C93.2646 19.6536 97.406 19.5798 101.4 19.0224C104.065 18.7419 106.697 18.299 109.38 18.1033C109.867 18.1181 110.336 18.2104 110.775 18.3617C113.404 19.2624 115.338 22.0455 119.04 20.056C119.52 19.9452 120.003 19.8862 120.502 19.8677C125.359 19.9785 130.298 19.6463 134.831 21.3996C140.43 25.386 147.078 25.7108 154.08 24.2823C157.845 23.5146 162.751 24.8434 165.017 21.1412C172.3 21.3368 179.136 15.8665 186.795 20.2516C188.235 21.0747 189.338 20.2737 189.884 19.1C190.339 18.1218 190.936 17.1806 191.239 16.1581C191.83 14.0505 193.878 13.2125 196.422 12.7954C198.714 13.2495 200.851 13.6813 203.427 13.1461C206.011 12.6072 209.285 12.5223 211.448 13.84C214.619 15.7705 217.572 15.0618 220.588 14.1723C222.88 13.4968 225.109 12.9726 227.604 13.0612C231.975 13.2162 234.433 10.662 237.124 8.82006C241.517 5.81176 242.631 5.66043 248.057 7.68319C252.546 9.35528 257.348 10.0086 261.833 7.37682C266.266 4.793 269.972 2.00618 276.922 2.62998C283.659 3.23534 290.735 1.93234 297.659 2.87728C298.121 2.98802 298.582 3.10983 299.036 3.23533C301.649 4.6675 304.023 4.58999 306.961 3.3313C312.793 0.832381 318.747 0.503866 324.719 3.58968C327.318 4.92957 330.798 4.76348 333.877 4.80777C338.081 4.86683 342.023 5.18426 345.445 7.17749C346.39 9.6801 347.686 11.7213 351.613 12.5998C353.942 13.1203 355.566 14.9511 356.924 16.6638C359.084 19.3879 361.524 19.9083 365.027 18.1218C368.146 16.5309 370.914 16.3574 374.118 17.8413C377.554 19.4322 381.301 18.5869 384.653 17.7896C388.048 16.9775 390.702 17.247 393.223 18.9929C396.368 21.1744 399.436 22.3888 402.629 18.9708C403.673 17.8523 405.452 17.5497 407.268 17.5903C407.759 17.6383 408.224 17.749 408.664 17.9225C411.277 20.8754 414.784 21.9053 419.357 20.7462C421.354 20.2405 423.609 19.9342 425.433 20.5764C431.283 22.6361 436.805 20.4657 442.475 20.2221C447.203 20.0191 447.816 17.1215 449.525 14.8847C451.902 12.7512 454.489 13.231 457.383 14.3273C462.4 16.2319 463.367 15.8443 463.577 11.8468C463.688 9.72809 464.433 8.33283 467.586 8.19995C468.257 8.17042 467.659 8.48048 468.069 8.14089C475.049 2.40851 485.078 5.26547 493.309 3.08399C501.869 2.73702 510.429 4.32791 519 3.05446C520.735 2.79608 522.259 2.43804 523.688 1.56692C527.224 -0.596102 530.985 -0.389398 534.702 1.38974C536.459 2.23133 538.02 3.23903 539.567 4.2947C542.716 6.44665 546.418 7.83083 550.81 7.73855C552.619 7.70164 554.513 7.83452 555.819 8.56537C561.688 11.8542 569.381 11.2821 575.504 13.9582C577.715 14.8625 580.203 14.8034 582.569 14.9252C589.652 15.2907 595.721 18.6755 602.937 18.609C604.878 18.5906 605.912 19.7533 606.857 20.857C608.396 24.9394 611.526 27.1688 617.694 26.9363C622.039 26.7739 626.095 28.2208 630.023 29.5939C630.466 29.7231 630.909 29.8486 631.352 29.9704C634.877 31.1258 636.733 27.7004 640.026 28.1987C649.586 28.7302 658.777 30.0295 666.362 34.924C668.256 36.1458 670.67 36.4521 673.15 36.4374C675.221 36.4226 677.31 36.3894 679.008 37.5189C681.363 41.7268 686.435 43.9932 691.196 46.1931C694.068 47.5182 698.121 46.9498 701.628 47.0901C705.108 47.2303 708.224 47.5145 711.538 48.7068C715.809 50.2386 721.054 49.7292 725.48 51.4272C726.525 51.8295 727.89 51.8997 728.747 52.5419C730.725 54.0258 732.844 54.3395 735.321 53.3429C736.099 53.0291 737.041 52.804 737.838 53.007C744.925 54.8083 752.835 54.7788 759.284 57.8424C763.517 59.8541 767.508 60.4816 771.941 58.8132C773.413 58.2595 774.79 58.1488 776.381 58.1119C781.176 58.0048 782.627 59.1897 781.394 62.652C781.036 63.6634 780.312 64.612 781.213 65.605C782.106 66.5905 783.472 66.7861 784.904 66.4908C786.668 66.1291 786.454 65.1362 786.406 64.0067C786.218 59.4924 790.116 57.1226 796.136 57.9642C798.395 58.278 800.226 57.4659 801.787 56.521C803.445 55.517 805.213 54.7972 807.188 54.2731C807.941 54.1992 808.668 54.2768 809.373 54.4761C811.067 55.373 812.566 54.6902 814.075 54.1217C816.441 52.959 818.981 52.1691 821.838 52.0658C823.248 52.0141 824.901 51.9772 825.747 51.1873C829.789 47.4223 835.082 48.6625 840.172 48.9504C843.114 49.1165 844.808 50.5228 846.214 52.2392C848.506 55.0371 851.744 56.2995 856.225 56.1593C862.943 55.9489 869.55 56.868 876.168 57.6136C877.829 57.8018 879.283 58.3297 880.132 59.3004C882.749 62.3087 886.835 62.3641 890.796 62.2201C900.028 61.8879 908.861 62.5302 917.756 64.9036C927.486 67.4985 937.722 67.9341 947.555 64.4164C949.29 63.7963 950.877 63.058 952.287 62.0504C957.854 58.0897 962.899 57.9052 969.961 60.5923C974.545 62.3383 979.923 62.246 984.714 61.3306C991.059 60.1125 997.12 60.9172 1003.3 61.4192C1004.35 61.5041 1005.39 61.6997 1006.16 62.2718C1011.09 65.9667 1017.13 66.2841 1023.55 65.4647C1029.03 65.7083 1034.53 65.6529 1039.94 66.5462C1042.2 66.919 1044.39 66.5683 1046.52 65.9556C1051 64.6674 1055.28 64.8999 1059.3 66.919C1060.3 67.0777 1061.27 66.9116 1062.24 66.7086C1062.71 66.6163 1063.17 66.6126 1063.64 66.6643C1070.73 64.9332 1078.89 65.9076 1085.08 61.8916C1085.46 61.6406 1086 61.5078 1086.51 61.4561C1096.06 60.4558 1105.52 61.4118 1114.44 63.6228C1120.22 65.0587 1122.31 65.5053 1126.47 61.7772C1126.81 61.4782 1127.15 61.1866 1127.54 60.9209C1132.52 59.282 1137.04 56.7092 1142.81 56.6391C1152.73 57.8978 1162.5 56.3364 1172.31 55.6646C1173.27 55.7532 1174.22 55.8566 1175.19 55.7975C1181.17 55.7643 1187.15 55.7754 1192.36 53.0439C1197.99 50.94 1203.98 49.6702 1209.95 51.5638C1215.36 53.2802 1218.51 50.2091 1222.65 49.1866C1227.45 50.3641 1232.03 49.7551 1236.5 48.2491C1237.83 48.1826 1239.15 48.131 1240.41 48.5407C1242.84 50.7406 1245.69 52.051 1249.8 51.752C1253.17 51.5084 1255.99 54.0996 1259.66 53.1104C1265.63 54.5278 1271.62 55.2402 1277.88 53.9593C1280.16 53.4905 1282.69 53.4389 1285.09 53.5053C1290.39 53.6493 1295.58 54.2731 1300.34 51.4161C1302.93 49.8658 1305.42 52.2429 1307.99 52.7671C1310.42 54.2546 1311.87 56.0116 1311.16 58.4995C1310.58 60.5333 1312.1 61.1386 1314.43 60.7178C1317.83 60.1051 1321.2 59.5736 1324.69 60.1273C1326.68 60.441 1326.56 59.4481 1326.57 58.5031C1326.58 57.2961 1325.5 56.3106 1325.35 55.1442C1325.19 53.8929 1325.69 52.8114 1327.12 52.0953C1328.42 51.4419 1329.82 51.5047 1330.96 52.2835C1334.51 54.7086 1337.11 54.9043 1339.97 51.3534C1341.8 49.0722 1345.25 49.3122 1348.19 51.0249C1351.48 52.9332 1354.74 54.7308 1359.38 54.5831C1365.77 54.3801 1367.29 54.1144 1369.2 49.5447C1370.49 46.4663 1373.3 45.5213 1376.7 44.9307C1379.57 44.4324 1381.86 45.3995 1381.3 47.7766C1380.46 51.3054 1383.17 53.9113 1384.71 56.8864C1383.75 54.812 1381.9 52.8446 1384.47 50.6705C1386.49 48.9578 1387.49 46.2854 1390.75 45.7354C1397.01 44.6723 1400.6 41.1584 1404.7 38.043C1407.18 37.2789 1409.74 37.6591 1411.62 38.7185C1415.34 40.8151 1417.41 39.4826 1418.97 37.1092C1420.54 34.7025 1423.1 33.5841 1426.33 32.6429C1431.08 31.2624 1434.42 31.6019 1437.26 35.1122C1438.96 37.2162 1441.9 38.2645 1445.24 36.334C1446.76 35.4592 1448.34 35.4112 1450.02 36.2897C1454.18 38.4601 1458.26 38.9732 1463.07 36.884C1466.25 35.5035 1469.94 36.788 1472.94 38.043C1476.56 39.5638 1478.37 39.5785 1480.26 36.227C1481.86 33.3848 1483.06 29.2765 1489.47 29.7379C1490.35 29.8006 1491.21 28.9 1491.79 28.2688C1494.53 25.2864 1499.14 24.7437 1503.09 23.3263C1508.78 20.4657 1514.32 17.6936 1521.7 17.3356C1525.65 17.1436 1528.71 17.4057 1531.76 19.1664C1535.62 21.3996 1539.07 23.7471 1544.76 23.9797C1548.55 24.1347 1553.22 25.5669 1555.09 29.0403C1557.18 31.5613 1560.96 30.1402 1563.71 31.0778C1564.42 31.3103 1565.02 31.6425 1565.56 32.0486C1570.91 34.2153 1575.52 38.3605 1582.65 35.784C1585.37 34.7985 1587.32 37.6813 1589.95 36.334C1592.29 35.0532 1594.59 33.669 1597.82 34.4441C1602.42 35.3263 1607.31 35.0384 1611.84 36.2749C1613.05 36.6551 1614.18 37.1128 1614.76 38.0652C1616.22 39.1061 1613.64 42.2842 1618.21 41.6714C1618.72 41.6604 1619.2 41.7379 1619.66 41.8745C1624.18 43.3583 1628.45 45.4992 1633.8 44.8422C1634.99 44.6945 1636.37 44.8938 1637.31 44.2811C1641.37 41.6419 1645.02 43.1922 1648.56 44.8827C1650.28 45.7022 1652.02 46.1931 1653.96 45.8277C1657.55 45.1559 1661.02 44.6428 1664.63 45.9052C1666.14 46.4293 1667.52 45.3368 1668.97 44.9418C1673.97 43.5724 1678.76 42.2214 1684.57 43.1073C1688.59 43.72 1693.15 42.7456 1696.89 40.6121C1699.98 38.8477 1703.07 36.8766 1707.37 36.8914C1709.37 36.8988 1710.98 36.0387 1712.63 35.3374C1712.93 35.1971 1713.32 34.9757 1713.58 35.0569C1719.21 36.7954 1725.7 35.4334 1731.16 37.7994C1733.71 38.9104 1736.45 38.8846 1739.25 38.4897C1745.1 40.5825 1750.9 42.7825 1756.96 44.5579C1758.45 44.9935 1759.86 45.5398 1761.44 45.1411C1768.63 43.3251 1773.63 46.4146 1777.79 49.8215C1787.07 57.3995 1798.55 60.0128 1811.71 58.9535C1817.15 58.5142 1821.69 60.6034 1826.85 60.9762C1831 61.2752 1835.35 61.7846 1839.43 63.1282C1842.38 64.1026 1845.5 62.7185 1848.45 61.9839C1850.07 61.5779 1851.56 60.3561 1853.29 60.7843C1859.14 62.2275 1865.24 60.1531 1871.13 61.7292C1873.68 62.4084 1876.71 62.3346 1879.38 61.7366C1886.03 60.2454 1892.64 58.828 1899.7 59.7212C1900.72 59.7471 1901.82 60.2269 1902.74 59.8689C1909.1 57.3884 1916.39 57.9679 1923 56.3586C1926.99 55.3878 1929.03 52.6933 1932.06 50.8772C1934.17 50.091 1936 48.943 1938.13 48.1642C1941.03 48.2196 1943.83 48.7732 1946.69 49.0722C1951.79 48.2196 1955.89 46.4404 1958.5 42.8305C1959.71 41.1473 1962.41 40.3463 1964.22 38.9547C1966.78 38.5339 1968.62 37.1165 1970.86 36.2565C1971.64 36.1273 1972.39 36.2344 1973.13 36.3857C1977.62 38.4306 1982.06 37.338 1985.8 35.5441C1988.41 34.2891 1990.23 33.6136 1993.18 34.732C1998.19 36.633 2003.42 35.0716 2008.51 34.7136C2010.84 34.5512 2012.95 34.4146 2015.01 35.3153C2019.43 36.7843 2023.61 36.6847 2027.52 34.3186C2029.15 33.3294 2031.38 33.2371 2033.13 32.3771C2033.54 32.1704 2034 32.0412 2034.49 31.9784C2038.97 33.1485 2043.23 34.9609 2048.22 34.7357C2049.57 34.8649 2050.34 35.6438 2051.26 36.2491C2052.99 37.5669 2054.78 38.0652 2057.29 37.1756C2059.62 36.3525 2062.11 35.9575 2064.75 37.0353C2065.91 37.5115 2067.9 37.8548 2068.92 36.7622C2071.35 34.1857 2074.67 33.6875 2078.51 34.027C2078.84 34.0566 2079.3 34.0455 2079.52 33.8978C2086.32 29.343 2092.7 33.6432 2099.25 34.3888C2099.71 34.5364 2100.11 34.7505 2100.46 35.0163C2104.78 38.1464 2106.82 38.5303 2112.06 36.7216C2114.26 35.9612 2116.11 36.9984 2118.13 36.8655C2122.57 34.027 2128.62 34.1452 2133.34 32.4398C2138.03 30.7456 2143.04 32.5174 2147.07 30.2362C2153.18 29.5718 2159.29 29.5939 2165.38 30.3802C2172.03 32.3328 2177.78 30.7234 2183.2 27.8628C2183.98 27.4014 2184.75 26.9252 2185.79 26.8477C2188.34 26.7554 2191.16 27.2833 2192.82 25.1461C2194.7 23.725 2196.82 23.4002 2199.44 24.0092C2205.82 25.4968 2211.42 23.9022 2216.26 20.9234C2218.93 19.2845 2221.21 18.5647 2224.68 19.5244C2231.03 21.2814 2235.97 18.6275 2240.73 15.992C2242.09 15.2316 2243.1 14.0837 2245 13.936C2247.34 14.1575 2249.65 14.4417 2252.07 14.2682C2255.52 14.0209 2258.49 14.7407 2259.92 17.4426C2260.21 17.7601 2260.4 18.1033 2260.53 18.4725C2260.4 20.3439 2260.78 22.0935 2262.68 23.4851C2263.77 26.4528 2265.47 29.295 2266.1 32.366C2266.08 36.5518 2267.26 40.4386 2271.09 43.6831C2271.42 44.0153 2271.62 44.3844 2271.71 44.7942C2272.3 50.1611 2274.63 55.2365 2276.45 60.393C2280.06 70.5843 2285.06 80.4508 2289.11 90.5277C2291.25 95.8577 2292.42 101.461 2294.44 106.868C2294.6 107.289 2294.69 107.717 2294.73 108.153C2297.28 115.487 2297.21 123.062 2298.46 130.514C2298.83 132.729 2300.69 134.811 2299.45 137.166C2301.49 152.51 2303.7 167.843 2305.53 183.202C2307.32 198.288 2308.89 213.396 2310.28 228.507C2312.78 255.56 2315.06 282.623 2317.48 309.683C2318.37 319.517 2318.34 329.42 2319.66 339.19C2321.38 351.836 2321.71 364.53 2323.34 377.173C2324.99 389.94 2325.59 402.785 2326.77 415.59C2328.41 433.422 2329.97 451.25 2332.43 469.042C2335.12 488.516 2337.08 508.046 2339.5 527.54C2340.65 536.697 2342.13 545.829 2343.47 554.972C2347.86 558.287 2346.72 562.735 2347.54 566.71C2349.57 576.54 2349.66 586.55 2352.25 596.339C2353.44 600.85 2352.85 605.357 2352.08 609.864C2351.76 611.742 2350.32 612.669 2347.97 612.735C2341.98 612.909 2335.92 613.544 2330.21 611.384C2328.12 610.591 2325.9 611.643 2323.74 611.406C2319.18 609.262 2313.92 609.948 2308.97 609.413C2307.13 609.214 2306.24 610.262 2305.03 610.971C2300.17 613.817 2296.36 613.732 2292.35 610.318C2290.36 608.62 2288.44 608.025 2285.38 607.752C2279.76 607.254 2274.47 605.346 2269.06 604.057C2263.61 602.762 2258.07 601.809 2253.04 600.776C2254.68 601.414 2258.37 601.049 2257.43 604.087C2256.79 606.191 2253.33 606.973 2249.54 605.788C2245.23 604.449 2240.87 603.459 2236.15 603.607C2228.76 599.816 2220.1 598.893 2211.6 597.845C2202.3 596.697 2192.87 596.86 2183.46 597.232C2181.01 597.133 2178.21 596.557 2176.69 595.616C2171.88 592.618 2167.47 593.12 2162.51 595.077C2159.37 596.313 2156.88 594.94 2153.73 594.08C2146.49 592.105 2138.78 589.311 2130.61 592.26C2128.75 592.932 2126.77 593.419 2125.07 594.331C2112.41 598.081 2100.97 593.216 2096.45 583.804C2087.45 580.892 2079.41 576.695 2070.81 573.24C2070.38 573.074 2069.98 572.874 2069.61 572.642C2069.08 572.273 2068.57 571.896 2068.01 571.546C2065.29 569.781 2062.45 568.116 2059.7 566.389C2056.17 564.167 2051.07 564.082 2046.7 562.971C2041.13 561.554 2035.61 560.199 2030.96 557.346C2030.41 559.811 2028.9 560.745 2025.33 559.671C2020.84 558.324 2016.18 557.309 2012.41 554.895C2011.75 554.47 2010.89 554.005 2010.09 554.123C2004.16 554.994 1999.09 552.296 1993.41 551.946C1988.32 551.628 1983.91 552.444 1979.63 554.249C1979.17 554.382 1978.7 554.437 1978.2 554.426C1974.96 554.352 1973.51 550.513 1969.46 552.108C1968.69 552.182 1967.96 552.082 1967.27 551.827C1964.85 549.801 1961.4 548.627 1959.95 545.689C1959.31 544.382 1956.79 542.363 1953.2 543.961C1950.69 545.076 1947.48 544.061 1944.59 544.187C1942.05 542.644 1939.34 542.179 1936.35 543.456C1935.85 543.478 1935.35 543.426 1934.87 543.301C1932.09 540.879 1928.84 539.606 1924.42 540.658C1922.22 541.182 1920.56 539.761 1918.56 539.451C1918.14 539.274 1917.73 539.074 1917.32 538.882C1912.17 537.388 1907.97 534.154 1901.6 534.844C1899.6 535.062 1897.14 533.641 1895.96 531.829C1894.76 529.976 1892.49 529.459 1889.95 529.455C1878.67 529.444 1867.6 528.344 1856.75 526.052C1856.26 525.949 1855.7 525.797 1855.37 525.532C1850.61 521.741 1845.32 523.154 1840.28 524.886C1837.31 525.908 1835.24 525.653 1833.67 523.682C1832.32 521.973 1830.26 521.767 1827.99 521.696C1825.4 521.36 1824.82 519.832 1824.31 518.26C1824.31 515.691 1821.1 516.016 1819.22 515.141C1818.59 514.812 1818.08 514.403 1817.71 513.897C1817.2 512.801 1816.08 511.848 1815.75 510.778C1814.84 507.895 1812.52 506.751 1808.73 506.865C1807.87 506.891 1807.12 506.456 1806.34 506.19C1805.9 506.053 1805.5 505.869 1805.15 505.625C1804.28 503.215 1802.34 501.834 1798.82 502.008C1798.35 501.923 1797.92 501.764 1797.54 501.543C1796.09 500.192 1794.03 500.561 1792.22 500.653C1788.34 500.849 1784.7 500.657 1781.34 498.929C1778.28 497.361 1776.66 499.394 1774.83 500.697C1772.22 504.326 1767.85 504.621 1763.09 504.197C1759.97 502.731 1756.65 505.086 1753.52 503.938C1748.53 503.089 1742.97 504.348 1738.47 501.69C1737.58 501.38 1736.63 500.594 1735.69 501.388C1732.09 504.44 1728.9 503.359 1725.77 500.878C1729.71 503.798 1728.37 507.305 1722.39 509.778C1721.94 509.91 1721.47 509.999 1720.98 510.04C1716.84 510.335 1712.52 508.43 1708.53 510.608C1703.35 508.083 1696.25 510.114 1691.45 506.481C1689.48 504.979 1686.49 504.514 1684.32 505.924C1679.93 508.777 1674.83 506.843 1670.15 507.43C1668.07 507.692 1665.73 506.533 1663.19 506.555C1660.27 506.581 1657.98 504.883 1657.03 502.864C1655.98 500.601 1654.46 500.598 1652.55 501.904C1649.45 504.023 1646.47 504.684 1642.87 502.521C1640.98 501.384 1639.14 502.255 1637.81 503.344C1635.14 505.529 1632.5 506.725 1629.08 504.13C1628.49 503.68 1627.46 503.477 1626.63 503.676C1621.64 504.879 1617.58 503.872 1613.8 501.24C1611.66 499.749 1609.07 499.981 1606.68 501.369C1602.12 504.016 1601.18 504.012 1597.45 500.731C1595.53 499.036 1593.45 498.638 1590.62 498.719C1582.86 498.948 1575.23 500.099 1567.48 500.332C1565.74 500.384 1563.94 500.679 1562.34 500.099C1558.04 498.531 1558.02 500.605 1558.18 502.768C1558.54 507.711 1555.65 509.708 1548.27 509.538C1547.82 509.401 1547.37 509.253 1546.93 509.102C1540.96 507.607 1541.14 507.578 1542.07 502.691C1542.83 498.638 1544.45 494.433 1540.91 490.255C1539.97 491.935 1540.57 493.245 1541.53 494.241C1543.6 496.401 1542.86 498.671 1542.45 500.926C1542.11 502.772 1540.37 503.669 1538 503.447C1533.92 503.071 1529.85 502.628 1525.91 501.576C1522.53 500.671 1521.58 498.892 1522.73 496.696C1524.75 492.872 1522.92 489.69 1520.31 485.567C1518.62 490.521 1513.17 490.148 1509.17 491.48C1507.28 492.112 1505.32 491.303 1504.39 489.864C1502.75 487.306 1499.56 487.099 1496.48 486.83C1493.47 486.571 1491.69 487.52 1490.98 489.927C1489.48 495.072 1481.25 497.287 1474.81 495.253C1470.62 493.931 1466.53 492.444 1462.33 491.174C1459.61 490.351 1458.01 489.314 1458.04 487.247C1454.75 488.52 1451.01 489.295 1448.43 491.602C1447.13 492.765 1445.21 492.245 1443.61 491.613C1441.01 490.591 1438.34 490.344 1435.56 491.108C1431.19 492.311 1430.18 494.171 1432.11 497.409C1432.6 498.239 1433.12 499.073 1433.49 499.93C1434.67 502.694 1432.83 504.732 1429.06 504.573C1422.97 504.315 1416.98 504.289 1411.09 505.78C1409.26 506.241 1407.22 506.024 1405.54 505.23C1400.51 502.857 1395.2 503.783 1389.9 504.37C1389.57 504.407 1389.14 504.481 1388.95 504.662C1383.77 509.493 1375.93 508.423 1369.13 509.608C1367.07 509.97 1366.5 510.996 1365.77 512.229C1363.94 515.329 1361.62 515.89 1357.51 514.351C1355.96 513.775 1354.43 512.653 1352.71 513.17C1343.78 515.846 1339.62 510.523 1334.42 507.67C1335.21 509.121 1337.08 510.56 1339.31 511.553C1344.31 513.775 1347.08 516.647 1345.12 520.969C1346.08 521.545 1346.74 521.372 1347.39 521.176C1350.34 520.301 1353.22 519.995 1355.27 522.298C1356.74 523.944 1355.33 527.838 1353.26 529.47C1348.31 533.379 1341.71 532.124 1335.77 532.523C1333.06 532.703 1331.59 530.467 1333.15 528.499C1334.88 526.307 1333.89 524.874 1331.87 523.365C1328.02 520.486 1325.62 516.514 1319.83 515.093C1317.66 514.561 1315.62 513.974 1313.32 513.963C1307.76 513.938 1307.12 514.458 1307.38 518.537C1307.51 520.464 1307.89 522.553 1305.08 523.738C1302.84 524.686 1300.64 524.077 1298.66 523.225C1295.81 521.992 1295.43 520.091 1296.26 517.828C1296.87 516.152 1296.91 514.166 1295.17 513.03C1290.38 509.885 1290.27 506.751 1294.13 503.82C1292.01 505.551 1291.1 508.187 1290.15 510.892C1289.19 513.624 1286.26 514.355 1283.37 512.553C1280.37 510.678 1277.53 510.756 1274.2 511.575C1271.92 512.14 1269.61 512.779 1267.09 512.579C1265.26 512.435 1264.16 513.177 1263.64 514.454C1263.39 515.074 1263.19 515.82 1262.46 516.156C1258.71 517.902 1257.33 519.818 1260.09 523.025C1261.28 524.406 1260.07 526.369 1258.14 527.517C1255.87 528.865 1253.09 529.027 1250.84 527.861C1248.22 526.502 1245.34 525.731 1242.48 524.819C1237.06 523.095 1236.42 520.674 1240.79 517.71C1243.16 516.101 1241.28 515.488 1239.84 515.495C1234.38 515.514 1229.42 513.498 1223.98 513.591C1222.64 513.613 1221.1 513.137 1220.31 514.388C1219.71 515.325 1220.45 516.115 1221 516.935C1225.75 523.978 1225.06 530.946 1220.31 537.801C1219.57 538.868 1219.01 539.912 1218.89 541.09C1218.67 543.175 1217.91 544.984 1214.67 545.364C1211.61 545.722 1209.84 544.39 1208.44 542.577C1206.66 540.274 1204.09 538.583 1201.01 537.244C1195.3 534.752 1189.23 536.834 1187.93 541.798C1186.64 546.763 1183.78 547.918 1177.44 545.608C1174.78 544.637 1172.83 544.689 1171.14 546.394C1168.83 548.719 1163.75 548.926 1163.02 552.411C1158.17 554.95 1153.17 553.344 1149.45 551.499C1143.73 548.657 1137.13 546.859 1132 543.352C1129.75 541.031 1126.02 540.005 1123.51 537.786C1121.79 536.269 1118.42 536.45 1115.6 536.598C1108.57 536.959 1103.89 534.844 1101.15 529.924C1100.03 527.905 1098.05 526.956 1095.32 526.499C1090.95 525.768 1086.47 525.517 1082.13 524.579C1077.55 523.59 1074.74 525.974 1072.06 528.252C1070.28 529.097 1068.46 528.547 1067.29 527.739C1064.79 526.015 1061.65 525.369 1058.71 524.35C1058.07 524.011 1057.65 523.535 1057.3 523.022C1050.1 515.565 1039.7 508.87 1032.41 506.363C1038.62 511.464 1047.05 517.245 1049.43 526.185C1049.04 527.215 1047.97 527.772 1046.84 528.289C1044.49 528.706 1042.93 527.776 1041.51 526.543C1039.38 524.697 1037.43 522.922 1033.61 522.652C1030.56 522.438 1031.96 519.932 1031.23 518.205C1024.25 521.231 1018.47 519.866 1013.57 515.499C1011.53 513.679 1009.12 512.934 1005.76 513.561C1003.08 514.063 1000.16 513.945 998.538 511.664C997.327 509.958 994.858 510.582 993.041 509.995C988.38 508.796 983.496 508.198 978.819 507.006C975.139 506.068 971.714 507.851 968.071 508.091C961.142 508.545 954.971 506.596 948.511 505.795C945.551 505.429 943.325 505.433 940.863 506.374C938.888 504.595 936.389 504.296 933.425 504.61C927.719 505.208 922.012 505.452 917.103 502.48C912.98 500.277 907.938 500.007 903.324 498.837C902.689 498.8 902.058 498.763 901.423 498.723C900.74 497.7 899.149 497.863 898.112 497.301L898.105 497.298C895.166 495.987 891.874 495.371 888.585 494.965C886.496 494.707 885.256 493.972 884.252 492.754C882.417 491.606 880.092 492.056 878.294 492.307C875.304 492.728 873.079 492.865 871.133 490.705C869.96 489.406 867.815 490.078 866.327 490.624C863.256 491.754 860.835 491.137 857.635 490.392C852.991 489.306 847.934 486.616 842.641 489.631C840.367 490.923 837.743 490.067 836.643 488.716C832.125 483.161 824.466 483.463 817.445 482.511C816.43 482.374 815.308 482.253 814.334 482.448C807.63 483.781 802.001 482.323 796.276 479.58C793.283 478.144 788.99 478.561 785.24 478.753C778.946 479.074 772.753 479.61 766.684 477.38C762.111 475.701 757.456 475.524 754.348 479.525C753.776 480.263 752.639 480.496 751.595 480.381C746.106 479.787 740.388 479.621 735.081 479.916C728.171 480.304 720.737 479.385 714.233 482.212C711.867 484.076 708.951 483.733 706.031 483.356C704.163 483.858 702.794 484.556 700.657 482.935C696.859 480.056 691.757 481.525 687.118 481.858C686.184 481.924 684.737 482.84 684.405 481.917C682.707 477.24 678.956 479.779 676.476 480.861C670.275 483.563 665.351 480.189 659.903 479.403C659.12 479.289 658.352 478.849 657.725 478.44C649.475 473.073 640.723 474.944 632.06 477.572C629.336 478.399 627.295 477.288 625.235 476.723C620.514 475.431 616.004 474.527 610.792 475.084C608.444 475.335 605.739 473.704 603.195 472.925C599.423 472.733 596.367 470.614 592.491 470.707L592.487 470.71C587.604 470.972 582.868 470.101 578.106 469.551C576.789 469.4 575.781 469.363 574.748 469.939L574.773 469.931C568.904 469.836 563.124 469.016 557.491 467.986C552.818 467.134 548.304 469.164 543.808 467.809C539.637 466.554 534.857 467.824 530.826 466.03C529.856 465.949 529.848 464.203 528.578 465.044C524.278 467.894 519.236 466.938 514.249 467.27C510.097 467.547 506.018 467.953 501.851 467.643C497.587 469.359 493.121 469.175 488.374 469.274C480.32 469.448 472.358 469.09 464.371 469.046C460.207 469.023 455.504 469.418 451.171 470.264C449.163 470.655 447.484 470.112 445.848 469.212C442.77 467.514 439.603 467.392 436.104 468.769C431.287 470.666 426.44 470.714 422.092 467.89C419.741 466.362 417.072 466.307 414.927 467.61C409.627 470.832 403.319 470.659 397.199 470.806C390.942 470.954 384.579 470.637 378.658 472.268C373.287 473.748 369.013 470.729 364.048 470.95C363.052 470.995 362.107 470.4 361.014 470.692C354.584 472.397 348.483 469.983 342.204 469.743C340.373 469.673 338.661 469.466 336.734 469.588C333.434 469.799 330.005 470.039 326.731 468.68C322.626 466.979 317.791 467.569 313.428 467.532C307.821 467.481 302.144 466.163 296.508 467.599C292.108 468.721 287.874 470.253 282.835 469.031C279.912 468.322 277.745 471.64 274.335 470.721C272.168 469.706 269.802 469.562 267.377 469.931C258.632 471.26 250.113 470.027 241.616 468.68C240.439 468.492 239.121 467.85 238.117 468.27C232.883 470.467 227.501 469.736 222.06 469.038C221.053 468.909 220.008 469.23 219.059 469.566C214.324 471.246 209.706 472.493 204.11 471.592C195.274 470.175 186.042 472.135 177.165 470.319C171.082 468.691 165.257 466.849 158.314 467.776C152.541 468.544 146.561 467.54 141.113 465.705C136.75 464.236 131.457 464.79 127.659 462.147C127.312 461.907 126.588 461.87 126.153 462.025C119.21 464.505 112.226 461.202 105.283 462.125L105.239 462.162C102.692 463.047 100.961 462.254 99.5912 460.652C98.2735 459.105 96.1953 458.149 93.9253 458.253C85.2916 458.636 77.2449 456.632 68.9951 455.329C65.0087 454.702 60.9226 456.304 56.6814 455.469C52.3111 454.606 47.7672 454.251 43.2197 454.015C40.9755 453.897 39.0413 453.151 37.2733 451.885C32.7663 448.652 26.6279 447.976 20.9177 447.618C16.492 447.342 12.3173 445.629 7.64797 446.485C5.49602 446.88 4.16721 446.002 3.67998 443.909C2.48773 438.819 1.46529 433.729 0.992819 428.576C-0.0591634 412.25 -0.30279 395.924 0.39484 379.579C0.944824 366.623 0.959592 353.656 1.92668 340.704C2.41022 334.259 3.39946 327.792 3.51019 321.392C3.70213 310.152 4.85746 298.96 5.42589 287.747C5.89836 278.43 6.59968 269.121 7.54093 259.812C9.06538 244.704 9.5157 229.537 10.5603 214.4C11.2948 203.787 12.2619 193.183 13.1257 182.574C11.9113 180.127 13.0297 177.735 13.432 175.325C14.735 171.29 14.9712 167.156 14.4582 162.985Z" fill="white"/>
</svg>
